<svg version="1.1" id="Layer_1" xmlns="http://www.w3.org/2000/svg" xmlns:xlink="http://www.w3.org/1999/xlink" x="0px" y="0px"
	 width="100%" viewBox="0 0 167 175" enable-background="new 0 0 167 175" xml:space="preserve">
<path fill="#000101" opacity="1.000000" stroke="none" 
	d="
M168.000000,107.000000 
	C168.000000,129.984833 168.000000,152.969681 168.000000,175.954514 
	C167.848602,175.969681 167.697220,175.998123 167.545822,175.998123 
	C112.082405,176.000031 56.618992,176.000000 1.077789,176.000000 
	C1.077789,117.757072 1.077789,59.514008 1.077789,1.135471 
	C56.666466,1.135471 112.333176,1.135471 168.000000,1.135471 
	C168.000000,29.433319 168.000000,57.748001 167.742554,86.942696 
	C166.650879,85.055763 165.653732,82.326294 165.007248,79.516159 
	C157.354187,46.249386 126.061134,20.833645 92.921463,20.968386 
	C89.990761,20.980301 87.244629,21.399824 87.131378,24.872242 
	C87.017212,28.372807 89.691200,28.923800 92.660873,29.066605 
	C96.477936,29.250158 100.327339,29.548344 104.075264,30.258924 
	C136.757141,36.455177 159.988632,65.915855 158.961639,99.720345 
	C157.952286,132.944916 132.583893,160.064697 98.208946,164.667374 
	C67.006439,168.845261 35.186165,147.895508 26.094345,116.810806 
	C24.338917,110.809036 24.250372,104.336235 22.862415,98.200729 
	C22.427794,96.279457 20.254351,94.751549 18.876831,93.043579 
	C17.581825,94.834984 16.219917,96.583992 15.038713,98.447533 
	C14.742353,98.915077 14.998358,99.752434 15.047375,100.416374 
	C17.208429,129.688721 30.950979,151.815765 57.212429,164.897369 
	C83.277641,177.881195 109.236794,175.881165 133.579910,159.840652 
	C151.583817,147.977234 162.009262,130.809296 166.051544,109.679466 
	C166.239319,108.697975 167.329895,107.889206 168.000000,107.000000 
M53.826031,87.307152 
	C56.493477,79.629219 62.591377,79.210716 69.268356,79.997917 
	C69.761421,80.056046 70.267799,79.991142 70.767235,80.006943 
	C75.364609,80.152374 78.906487,78.312485 80.933540,74.154953 
	C83.052124,69.809685 82.575775,65.058525 79.178856,62.107025 
	C74.118263,57.710014 73.527481,52.311817 73.245209,46.419041 
	C72.812767,37.391434 68.796318,30.062653 61.765839,24.589415 
	C58.560020,22.093685 54.702755,20.434757 51.033604,18.334839 
	C52.255100,14.417693 53.295204,9.755587 48.806316,7.845911 
	C45.538773,6.455823 40.822647,6.269623 37.564171,7.574277 
	C32.652901,9.540692 33.719711,14.574907 34.943867,18.733635 
	C18.764503,26.067198 13.948172,32.743874 12.520875,49.975693 
	C12.149163,54.463398 10.974053,58.139347 7.397326,61.370564 
	C3.865231,64.561462 2.888404,69.081245 4.933691,73.758888 
	C6.906735,78.271309 10.529460,80.105919 15.325933,80.015976 
	C18.491154,79.956619 21.699518,79.706306 24.807360,80.132980 
	C26.353985,80.345329 28.374514,81.550102 29.059731,82.882431 
	C34.092850,92.668831 44.472355,94.881943 53.826031,87.307152 
z"/>
<path fill="#1676DE" opacity="1.000000" stroke="none" 
	d="
M168.000000,106.531601 
	C167.329895,107.889206 166.239319,108.697975 166.051544,109.679466 
	C162.009262,130.809296 151.583817,147.977234 133.579910,159.840652 
	C109.236794,175.881165 83.277641,177.881195 57.212429,164.897369 
	C30.950979,151.815765 17.208429,129.688721 15.047375,100.416374 
	C14.998358,99.752434 14.742353,98.915077 15.038713,98.447533 
	C16.219917,96.583992 17.581825,94.834984 18.876831,93.043579 
	C20.254351,94.751549 22.427794,96.279457 22.862415,98.200729 
	C24.250372,104.336235 24.338917,110.809036 26.094345,116.810806 
	C35.186165,147.895508 67.006439,168.845261 98.208946,164.667374 
	C132.583893,160.064697 157.952286,132.944916 158.961639,99.720345 
	C159.988632,65.915855 136.757141,36.455177 104.075264,30.258924 
	C100.327339,29.548344 96.477936,29.250158 92.660873,29.066605 
	C89.691200,28.923800 87.017212,28.372807 87.131378,24.872242 
	C87.244629,21.399824 89.990761,20.980301 92.921463,20.968386 
	C126.061134,20.833645 157.354187,46.249386 165.007248,79.516159 
	C165.653732,82.326294 166.650879,85.055763 167.742554,87.411354 
	C168.000000,93.354401 168.000000,99.708794 168.000000,106.531601 
z"/>
<path fill="#1879E1" opacity="1.000000" stroke="none" 
	d="
M53.566929,87.566742 
	C44.472355,94.881943 34.092850,92.668831 29.059731,82.882431 
	C28.374514,81.550102 26.353985,80.345329 24.807360,80.132980 
	C21.699518,79.706306 18.491154,79.956619 15.325933,80.015976 
	C10.529460,80.105919 6.906735,78.271309 4.933691,73.758888 
	C2.888404,69.081245 3.865231,64.561462 7.397326,61.370564 
	C10.974053,58.139347 12.149163,54.463398 12.520875,49.975693 
	C13.948172,32.743874 18.764503,26.067198 34.943867,18.733635 
	C33.719711,14.574907 32.652901,9.540692 37.564171,7.574277 
	C40.822647,6.269623 45.538773,6.455823 48.806316,7.845911 
	C53.295204,9.755587 52.255100,14.417693 51.033604,18.334839 
	C54.702755,20.434757 58.560020,22.093685 61.765839,24.589415 
	C68.796318,30.062653 72.812767,37.391434 73.245209,46.419041 
	C73.527481,52.311817 74.118263,57.710014 79.178856,62.107025 
	C82.575775,65.058525 83.052124,69.809685 80.933540,74.154953 
	C78.906487,78.312485 75.364609,80.152374 70.767235,80.006943 
	C70.267799,79.991142 69.761421,80.056046 69.268356,79.997917 
	C62.591377,79.210716 56.493477,79.629219 53.566929,87.566742 
M24.731791,32.277725 
	C20.504335,36.948349 18.776388,42.523804 18.573223,48.730236 
	C18.368084,54.996929 17.421337,60.902962 12.018408,65.312340 
	C10.727285,66.366028 9.968530,69.493073 10.574077,71.034256 
	C11.135117,72.462158 13.839551,73.854370 15.615511,73.874031 
	C33.927876,74.076782 52.244019,74.064133 70.556885,73.884712 
	C72.229233,73.868324 74.862419,72.618843 75.306923,71.337486 
	C75.882126,69.679375 75.399414,66.547653 74.164040,65.556992 
	C68.391075,60.927631 67.687172,54.638393 67.350266,48.053658 
	C66.804298,37.382839 61.758102,29.677862 51.753754,25.776295 
	C41.714573,21.861145 32.828568,24.245552 24.731791,32.277725 
M40.711964,79.994247 
	C38.864491,79.994247 37.017017,79.994247 34.583683,79.994247 
	C37.050362,84.734276 40.267067,86.762787 44.326233,85.747246 
	C46.879620,85.108429 49.039577,82.897079 51.376034,81.391190 
	C51.093243,80.925545 50.810455,80.459892 50.527668,79.994247 
	C47.559761,79.994247 44.591854,79.994247 40.711964,79.994247 
M42.607380,11.995140 
	C37.490448,14.297862 41.025070,15.983107 42.986557,18.247290 
	C45.171207,15.983425 48.482609,14.264188 42.607380,11.995140 
z"/>
<path fill="#BFE2F7" opacity="1.000000" stroke="none" 
	d="
M24.983166,32.020439 
	C32.828568,24.245552 41.714573,21.861145 51.753754,25.776295 
	C61.758102,29.677862 66.804298,37.382839 67.350266,48.053658 
	C67.687172,54.638393 68.391075,60.927631 74.164040,65.556992 
	C75.399414,66.547653 75.882126,69.679375 75.306923,71.337486 
	C74.862419,72.618843 72.229233,73.868324 70.556885,73.884712 
	C52.244019,74.064133 33.927876,74.076782 15.615511,73.874031 
	C13.839551,73.854370 11.135117,72.462158 10.574077,71.034256 
	C9.968530,69.493073 10.727285,66.366028 12.018408,65.312340 
	C17.421337,60.902962 18.368084,54.996929 18.573223,48.730236 
	C18.776388,42.523804 20.504335,36.948349 24.983166,32.020439 
z"/>
<path fill="#010306" opacity="1.000000" stroke="none" 
	d="
M41.167953,79.994247 
	C44.591854,79.994247 47.559761,79.994247 50.527668,79.994247 
	C50.810455,80.459892 51.093243,80.925545 51.376034,81.391190 
	C49.039577,82.897079 46.879620,85.108429 44.326233,85.747246 
	C40.267067,86.762787 37.050362,84.734276 34.583683,79.994247 
	C37.017017,79.994247 38.864491,79.994247 41.167953,79.994247 
z"/>
<path fill="#B1DAF5" opacity="1.000000" stroke="none" 
	d="
M43.001984,11.996586 
	C48.482609,14.264188 45.171207,15.983425 42.986557,18.247290 
	C41.025070,15.983107 37.490448,14.297862 43.001984,11.996586 
z"/>
</svg>