<svg width="45" height="68" viewBox="0 0 45 68" fill="none" xmlns="http://www.w3.org/2000/svg">
<g clip-path="url(#clip0_730_14701)">
<path d="M3.59041 6.54356C4.66271 6.39035 5.68472 6.04945 6.72945 6.03775C8.23544 6.03656 9.77495 6.1605 11.2593 6.56746C20.4267 9.00623 28.0697 14.0663 32.9112 22.3582C37.8029 30.8378 38.1611 39.9957 33.7341 48.8935C31.529 53.3737 28.4171 57.158 24.7097 60.4313C24.016 61.0196 23.3833 61.5914 22.2845 62.6235C24.2745 62.962 25.7864 63.2275 27.3595 63.4765C27.3486 63.6806 27.3989 63.8683 27.4049 64.1349C26.9939 64.3121 26.6165 64.6144 26.172 64.6665C23.983 65.0518 21.7773 65.3746 19.5716 65.6974C18.1159 65.8863 16.6159 66.1541 15.5857 64.7537C14.4777 63.3071 15.0255 61.6851 15.7792 60.3431C16.8602 58.5112 18.1579 56.7553 19.4725 55.0619C19.7721 54.7134 20.5113 54.7836 21.0612 54.6362C21.2121 55.1993 21.5798 55.8384 21.436 56.2793C20.9434 57.6183 20.2172 58.8187 19.5245 60.1443C19.7246 60.1578 19.8803 60.2501 19.9246 60.1712C32.06 51.6891 37.3824 39.5338 32.1547 25.6456C31.9092 24.9737 31.6026 24.3182 31.1738 23.6955C25.6147 14.9253 17.9154 9.41089 7.83747 7.48434C6.5256 7.23234 5.11425 7.34228 3.73047 7.31072C3.66341 7.06046 3.65747 6.79382 3.59041 6.54356Z" fill="#2E2E2E"/>
</g>
<defs>
<clipPath id="clip0_730_14701">
<rect width="62" height="29" fill="white" transform="translate(28.0118) rotate(75)"/>
</clipPath>
</defs>
</svg>
