<svg width="84" height="38" viewBox="0 0 84 38" fill="none" xmlns="http://www.w3.org/2000/svg">
<g clip-path="url(#clip0_722_13251)">
<path d="M10.078 0.440979H0.798523V3.53449H10.078V0.440979Z" fill="#212121"/>
<path d="M3.89128 9.72048L3.89128 0.440979L0.79777 0.440979L0.79777 9.72048H3.89128Z" fill="#212121"/>
<path d="M10.078 34.4654H0.798538V37.5589H10.078V34.4654Z" fill="#212121"/>
<path d="M0.798538 28.2795L0.798538 37.559H3.89205L3.89205 28.2795H0.798538Z" fill="#212121"/>
<path d="M0.798538 19.001L0.798538 25.187H3.89205L3.89205 19.001H0.798538Z" fill="#212121"/>
<path d="M2.3455 15.8538C3.18492 15.8538 3.86541 15.1733 3.86541 14.3339C3.86541 13.4945 3.18492 12.814 2.3455 12.814C1.50608 12.814 0.825592 13.4945 0.825592 14.3339C0.825592 15.1733 1.50608 15.8538 2.3455 15.8538Z" fill="#212121"/>
<path d="M22.4508 37.56H31.7303V34.4665H22.4508V37.56Z" fill="#212121"/>
<path d="M28.6371 28.2805V37.56H31.7306V28.2805H28.6371Z" fill="#212121"/>
<path d="M22.4508 3.53442L31.7303 3.53442V0.440912L22.4508 0.440912V3.53442Z" fill="#212121"/>
<path d="M31.7298 9.72048V0.440979L28.6363 0.440979V9.72048H31.7298Z" fill="#212121"/>
<path d="M31.7298 18.999V12.813H28.6363V18.999H31.7298Z" fill="#212121"/>
<path d="M30.1835 25.186C31.0229 25.186 31.7034 24.5055 31.7034 23.6661C31.7034 22.8267 31.0229 22.1462 30.1835 22.1462C29.344 22.1462 28.6636 22.8267 28.6636 23.6661C28.6636 24.5055 29.344 25.186 30.1835 25.186Z" fill="#212121"/>
<path d="M40.6738 19.6299C39.9076 19.6299 39.3087 19.4185 38.8771 18.9959C38.4455 18.5732 38.2301 17.9743 38.2307 17.1992C38.2307 16.4021 38.43 15.786 38.8286 15.351C39.2272 14.9159 39.7778 14.6981 40.4807 14.6974C41.1525 14.6974 41.676 14.8888 42.0512 15.2715C42.4263 15.6542 42.6149 16.1832 42.617 16.8585V17.4884H39.5462C39.5593 17.8566 39.6684 18.1444 39.8735 18.3516C40.0787 18.5588 40.365 18.662 40.7326 18.6613C41.0063 18.6626 41.2793 18.6328 41.5463 18.5725C41.8218 18.5054 42.0896 18.4099 42.3454 18.2876V19.2912C42.1163 19.4061 41.8734 19.4911 41.6227 19.5442C41.3102 19.6058 40.9922 19.6346 40.6738 19.6299ZM40.491 15.6195C40.3705 15.6132 40.2501 15.6335 40.1382 15.6788C40.0264 15.7241 39.9258 15.7934 39.8436 15.8817C39.6738 16.0923 39.5793 16.3536 39.5751 16.6241H41.3965C41.3917 16.304 41.3081 16.0566 41.1456 15.8817C41.0617 15.7936 40.9598 15.7246 40.8468 15.6794C40.7339 15.6341 40.6125 15.6137 40.491 15.6195Z" fill="black"/>
<path d="M47.8001 19.543H46.5012V16.7655C46.5012 16.4227 46.4403 16.1645 46.3184 15.9931C46.1966 15.8217 46.0025 15.736 45.7361 15.736C45.3726 15.736 45.11 15.8572 44.9482 16.0995C44.7865 16.3418 44.7056 16.7442 44.7056 17.3065V19.543H43.4077V14.7871H44.3989L44.5734 15.3953H44.6457C44.7896 15.1667 44.9975 14.9853 45.2436 14.8739C45.5159 14.7524 45.8117 14.6921 46.1099 14.6973C46.6606 14.6973 47.0805 14.847 47.3696 15.1465C47.6587 15.4459 47.8022 15.8789 47.8001 16.4454V19.543Z" fill="black"/>
<path d="M51.8964 19.5431L51.6455 18.8967H51.6114C51.4338 19.1372 51.2026 19.3331 50.9361 19.4687C50.6494 19.5857 50.341 19.6403 50.0316 19.6288C49.5752 19.6288 49.2159 19.4983 48.9536 19.2374C48.6914 18.9766 48.5599 18.6048 48.5592 18.1223C48.5592 17.6177 48.7361 17.2453 49.0899 17.0051C49.4437 16.7648 49.9762 16.6323 50.6873 16.6075L51.5133 16.5817V16.3752C51.5133 15.8934 51.2665 15.6524 50.773 15.6524C50.392 15.6524 49.9469 15.7671 49.4307 15.9973L49.0011 15.1207C49.5642 14.8302 50.19 14.6824 50.8236 14.6901C51.4617 14.6901 51.9511 14.8278 52.2918 15.1031C52.6326 15.3785 52.803 15.8011 52.803 16.3711V19.5431H51.8964ZM51.5133 17.3386L51.0105 17.3561C50.6332 17.3672 50.3524 17.436 50.1679 17.5627C50.0765 17.6257 50.003 17.7113 49.9545 17.8112C49.906 17.9111 49.8842 18.0218 49.8912 18.1326C49.8912 18.4988 50.1015 18.6819 50.5221 18.6819C50.6538 18.6887 50.7855 18.6691 50.9096 18.6245C51.0337 18.5798 51.1476 18.5109 51.2448 18.4217C51.3357 18.3323 51.4068 18.2248 51.4534 18.1062C51.5 17.9875 51.5211 17.8604 51.5154 17.733L51.5133 17.3386Z" fill="black"/>
<path d="M59.595 18.1316C59.595 18.6197 59.4257 18.9914 59.087 19.2468C58.7483 19.5022 58.241 19.6299 57.565 19.6299C57.2685 19.6338 56.9723 19.6103 56.6801 19.5597C56.4448 19.5156 56.215 19.4464 55.9945 19.3531V18.2803C56.2567 18.4012 56.5298 18.4966 56.8102 18.5653C57.0701 18.6367 57.3379 18.6755 57.6073 18.681C58.0782 18.681 58.3146 18.5447 58.3146 18.2679C58.3163 18.2223 58.3089 18.1768 58.2928 18.134C58.2766 18.0913 58.2521 18.0522 58.2207 18.0191C58.1239 17.9317 58.015 17.8587 57.8975 17.8023C57.7433 17.7203 57.5388 17.626 57.2842 17.5193C56.9997 17.4095 56.729 17.2667 56.4777 17.0939C56.3181 16.977 56.1894 16.8228 56.1029 16.6448C56.0204 16.4489 55.9806 16.2377 55.9862 16.0252C55.9786 15.8335 56.0197 15.643 56.1057 15.4715C56.1916 15.3 56.3196 15.153 56.4777 15.0443C56.8061 14.813 57.2697 14.6974 57.8717 14.6974C58.4499 14.6985 59.0209 14.8265 59.5444 15.0722L59.1531 16.0077C58.9145 15.9044 58.6915 15.8218 58.484 15.7568C58.2792 15.6901 58.0654 15.6552 57.85 15.6535C57.4669 15.6535 57.2759 15.7568 57.2759 15.9633C57.2785 16.0253 57.2968 16.0855 57.3292 16.1385C57.3615 16.1914 57.4068 16.2352 57.4607 16.2658C57.7192 16.4158 57.9905 16.5426 58.2713 16.6448C58.5602 16.7509 58.8349 16.8924 59.089 17.066C59.251 17.1837 59.3823 17.3384 59.4721 17.5173C59.5591 17.7101 59.6012 17.9202 59.595 18.1316Z" fill="black"/>
<path d="M63.6665 18.1316C63.6665 18.6196 63.4968 18.9914 63.1574 19.2467C62.8181 19.5021 62.3111 19.6298 61.6365 19.6298C61.3396 19.6338 61.0431 19.6103 60.7506 19.5596C60.5156 19.5156 60.2861 19.4464 60.066 19.3531V18.2803C60.3278 18.4011 60.6006 18.4966 60.8807 18.5653C61.1409 18.6366 61.409 18.6755 61.6788 18.6809C62.1497 18.6809 62.3851 18.5432 62.3851 18.2679C62.387 18.2222 62.3797 18.1766 62.3636 18.1338C62.3474 18.0911 62.3228 18.052 62.2911 18.019C62.1947 17.9312 62.0858 17.8581 61.9679 17.8022C61.8151 17.7203 61.611 17.626 61.3556 17.5193C61.071 17.4097 60.8004 17.2669 60.5492 17.0939C60.3887 16.9797 60.2586 16.828 60.1703 16.6519C60.0873 16.4562 60.0475 16.2449 60.0536 16.0324C60.0454 15.8406 60.0863 15.6499 60.1722 15.4783C60.2582 15.3066 60.3866 15.1598 60.5451 15.0515C60.8727 14.8202 61.337 14.7046 61.938 14.7046C62.5163 14.7057 63.0873 14.8336 63.6107 15.0794L63.2194 16.0149C62.9809 15.9116 62.7578 15.829 62.5513 15.764C62.3465 15.6973 62.1327 15.6625 61.9173 15.6607C61.5343 15.6607 61.3422 15.764 61.3422 15.9705C61.3448 16.0326 61.3633 16.0929 61.3958 16.1459C61.4283 16.1988 61.4739 16.2426 61.5281 16.273C61.7865 16.4232 62.0577 16.55 62.3386 16.6519C62.6274 16.7578 62.9017 16.8993 63.1554 17.0732C63.3176 17.1905 63.4491 17.3453 63.5384 17.5244C63.6266 17.7145 63.6704 17.9221 63.6665 18.1316Z" fill="black"/>
<path d="M67.4393 19.5431L67.1914 18.8977H67.1574C66.9797 19.1382 66.7485 19.3341 66.4821 19.4698C66.1954 19.5867 65.887 19.6413 65.5776 19.6298C65.1212 19.6298 64.7619 19.4994 64.4996 19.2385C64.2373 18.9776 64.1059 18.6059 64.1052 18.1233C64.1052 17.6187 64.2821 17.2463 64.6359 17.0061C64.9897 16.7659 65.5222 16.6334 66.2332 16.6086L67.0593 16.5828V16.3763C67.0593 15.8944 66.8125 15.6535 66.3189 15.6535C65.9379 15.6535 65.4929 15.7681 64.9766 15.9983L64.5471 15.1217C65.1089 14.8315 65.7332 14.6833 66.3654 14.6901C67.0035 14.6901 67.4929 14.8278 67.8337 15.1031C68.1744 15.3785 68.3448 15.8011 68.3448 16.3711V19.5431H67.4393ZM67.0562 17.3386L66.5533 17.3561C66.1761 17.3672 65.8953 17.436 65.7108 17.5626C65.6194 17.6257 65.5459 17.7113 65.4974 17.8112C65.4489 17.9111 65.4271 18.0218 65.4341 18.1326C65.4341 18.4992 65.6406 18.6819 66.0639 18.6819C66.1956 18.6886 66.3273 18.669 66.4514 18.6244C66.5755 18.5797 66.6895 18.5108 66.7867 18.4217C66.8774 18.3322 66.9484 18.2247 66.995 18.106C67.0416 17.9874 67.0628 17.8603 67.0572 17.733L67.0562 17.3386Z" fill="black"/>
<path d="M73.812 19.5431H72.5141V16.7655C72.5141 16.4227 72.4532 16.1646 72.3313 15.9932C72.2095 15.8218 72.0143 15.7361 71.7479 15.7361C71.3845 15.7361 71.1219 15.8572 70.9601 16.0995C70.7983 16.3418 70.7175 16.7442 70.7175 17.3066V19.5431H69.4195V14.7871H70.4118L70.5863 15.3953H70.6586C70.802 15.1662 71.01 14.9848 71.2564 14.8739C71.5288 14.7523 71.8245 14.692 72.1227 14.6973C72.6734 14.6973 73.0933 14.847 73.3825 15.1465C73.6716 15.4459 73.8147 15.8789 73.812 16.4454V19.5431Z" fill="black"/>
<path d="M76.8191 19.6298C75.3385 19.6298 74.5981 18.8168 74.5981 17.1909C74.5981 16.3821 74.7995 15.7643 75.2022 15.3375C75.6049 14.9107 76.182 14.6973 76.9337 14.6973C77.446 14.6887 77.9533 14.7993 78.4154 15.0205L78.0334 16.0252C77.8269 15.9426 77.6366 15.8737 77.4624 15.8186C77.2913 15.7668 77.1135 15.7404 76.9348 15.7402C76.2595 15.7402 75.9218 16.2196 75.9218 17.1785C75.9218 18.1092 76.2595 18.5745 76.9348 18.5745C77.17 18.5759 77.404 18.541 77.6286 18.4713C77.8548 18.3985 78.0696 18.2942 78.2668 18.1615V19.2725C78.0716 19.3994 77.8566 19.4929 77.6307 19.5492C77.3641 19.6067 77.0918 19.6337 76.8191 19.6298Z" fill="black"/>
<path d="M81.2604 19.6299C80.4942 19.6299 79.8957 19.4185 79.4648 18.9959C79.0338 18.5732 78.818 17.9743 78.8174 17.1992C78.8174 16.4021 79.0166 15.786 79.4152 15.351C79.8138 14.9159 80.3644 14.6981 81.0673 14.6974C81.7391 14.6974 82.2623 14.8888 82.6367 15.2715C83.0112 15.6542 83.1995 16.1832 83.2015 16.8585V17.4884H80.1328C80.1473 17.857 80.2557 18.1451 80.4601 18.3516C80.6646 18.5581 80.9516 18.6613 81.3202 18.6613C81.5936 18.6626 81.8662 18.6328 82.1329 18.5725C82.4087 18.5054 82.6769 18.4099 82.9331 18.2876V19.2912C82.7022 19.4059 82.4575 19.4905 82.2051 19.5431C81.8941 19.6049 81.5774 19.6339 81.2604 19.6299ZM81.0776 15.6195C80.9571 15.6132 80.8367 15.6335 80.7248 15.6788C80.613 15.7241 80.5124 15.7934 80.4302 15.8817C80.2607 16.0924 80.1666 16.3538 80.1628 16.6241H81.9842C81.978 16.304 81.8943 16.0566 81.7333 15.8817C81.649 15.7937 81.5469 15.7248 81.4338 15.6795C81.3208 15.6343 81.1993 15.6138 81.0776 15.6195Z" fill="black"/>
<path d="M41.6146 28.2598H40.3167V25.4813C40.3167 25.1384 40.2548 24.8803 40.1329 24.7089C40.0111 24.5375 39.817 24.4518 39.5506 24.4518C39.1871 24.4518 38.9245 24.573 38.7627 24.8153C38.601 25.0576 38.5201 25.4596 38.5201 26.0213V28.2598H37.2222V23.5029H38.2145L38.389 24.1111H38.4612C38.6046 23.882 38.8126 23.7005 39.0591 23.5896C39.3311 23.4681 39.6265 23.4078 39.9244 23.4131C40.4751 23.4131 40.895 23.5628 41.1841 23.8622C41.4732 24.1617 41.6167 24.5936 41.6146 25.1581V28.2598Z" fill="black"/>
<path d="M47.0806 28.2599H45.7826V25.4813C45.7826 25.1385 45.7217 24.8803 45.5999 24.7089C45.478 24.5375 45.2829 24.4518 45.0165 24.4518C44.653 24.4518 44.3908 24.573 44.2297 24.8153C44.0686 25.0576 43.9877 25.4596 43.987 26.0213V28.2599H42.6891V23.5029H43.6804L43.8549 24.1111H43.9272C44.0705 23.882 44.2786 23.7005 44.525 23.5896C44.7973 23.468 45.0931 23.4077 45.3913 23.4131C45.942 23.4131 46.3619 23.5628 46.651 23.8622C46.9401 24.1617 47.0833 24.5936 47.0806 25.1581V28.2599Z" fill="black"/>
<path d="M52.4787 25.8726C52.4787 26.647 52.2746 27.2527 51.8664 27.6899C51.4582 28.127 50.8893 28.3455 50.1596 28.3455C49.7374 28.3542 49.3205 28.2505 48.9515 28.045C48.6027 27.8456 48.3223 27.5455 48.1472 27.1839C47.9521 26.7748 47.8559 26.3257 47.8663 25.8726C47.8663 25.0947 48.069 24.4903 48.4745 24.0594C48.8799 23.6285 49.4502 23.413 50.1854 23.413C50.6072 23.4044 51.0239 23.5069 51.3935 23.7104C51.7416 23.9084 52.0219 24.2067 52.1978 24.5664C52.3932 24.9735 52.4895 25.4211 52.4787 25.8726ZM49.189 25.8726C49.189 26.3434 49.2664 26.6996 49.4213 26.9413C49.5762 27.1829 49.8281 27.3033 50.1771 27.3026C50.5213 27.3026 50.7702 27.1829 50.9237 26.9433C51.0772 26.7038 51.1533 26.3469 51.1519 25.8726C51.1519 25.4017 51.0751 25.0486 50.9216 24.8132C50.7688 24.5778 50.5169 24.46 50.1679 24.46C49.8189 24.46 49.5721 24.5767 49.4193 24.8111C49.2664 25.0455 49.189 25.3986 49.189 25.8726Z" fill="black"/>
<path d="M54.4217 28.2598L52.6086 23.5029H53.9663L54.8853 26.2133C54.9826 26.5308 55.0469 26.8574 55.0774 27.188H55.1032C55.1279 26.8567 55.192 26.5295 55.2942 26.2133L56.209 23.5029H57.5668L55.7537 28.2598H54.4217Z" fill="black"/>
<path d="M61.0075 28.2599L60.7566 27.6135H60.7225C60.5455 27.8542 60.3146 28.0501 60.0483 28.1855C59.7615 28.3025 59.4532 28.3571 59.1437 28.3456C58.6874 28.3456 58.3277 28.2151 58.0647 27.9542C57.8018 27.6934 57.6706 27.3216 57.6713 26.8391C57.6713 26.3345 57.8479 25.9621 58.201 25.7219C58.5542 25.4816 59.0869 25.3495 59.7994 25.3254L60.6254 25.2996V25.0931C60.6254 24.6112 60.3783 24.3703 59.8841 24.3703C59.5041 24.3703 59.0567 24.4852 58.5418 24.7151L58.1122 23.8385C58.6749 23.5481 59.3005 23.4006 59.9336 23.409C60.5718 23.409 61.0612 23.5466 61.4019 23.822C61.7427 24.0973 61.9127 24.52 61.912 25.09V28.2599H61.0075ZM60.6254 26.0554L60.1226 26.0729C59.7461 26.084 59.4652 26.1528 59.28 26.2795C59.1886 26.3425 59.1151 26.4281 59.0666 26.528C59.0181 26.6279 58.9963 26.7386 59.0033 26.8494C59.0033 27.2149 59.2098 27.3987 59.6332 27.3987C59.7649 27.4052 59.8965 27.3856 60.0206 27.3409C60.1446 27.2963 60.2586 27.2275 60.356 27.1385C60.4467 27.049 60.5176 26.9415 60.5642 26.8229C60.6108 26.7042 60.632 26.5771 60.6265 26.4498L60.6254 26.0554Z" fill="black"/>
<path d="M64.9939 27.311C65.2719 27.3019 65.5472 27.2518 65.8106 27.1623V28.1287C65.433 28.2836 65.027 28.3575 64.6191 28.3456C64.0993 28.3456 63.7207 28.2144 63.4832 27.9522C63.2458 27.6899 63.1277 27.2962 63.1291 26.7709V24.4766H62.5096V23.9283L63.2241 23.4936L63.5989 22.49H64.4249V23.5029H65.7579V24.4766H64.427V26.7709C64.4202 26.8471 64.4306 26.9238 64.4576 26.9953C64.4846 27.0668 64.5275 27.1313 64.5829 27.1839C64.7001 27.2745 64.846 27.3196 64.9939 27.311Z" fill="black"/>
<path d="M73.233 25.8726C73.233 26.647 73.0289 27.2527 72.6207 27.6899C72.2125 28.127 71.6436 28.3455 70.9139 28.3455C70.4917 28.3542 70.0748 28.2505 69.7058 28.045C69.357 27.8456 69.0766 27.5455 68.9015 27.1839C68.7064 26.7748 68.6102 26.3257 68.6206 25.8726C68.6206 25.0947 68.8233 24.4903 69.2288 24.0594C69.6342 23.6285 70.2045 23.413 70.9397 23.413C71.3615 23.4044 71.7782 23.5069 72.1478 23.7104C72.4959 23.9084 72.7762 24.2067 72.9521 24.5664C73.1475 24.9735 73.2438 25.4211 73.233 25.8726ZM69.9433 25.8726C69.9433 26.3434 70.0207 26.6996 70.1756 26.9413C70.3305 27.1829 70.5824 27.3033 70.9314 27.3026C71.2756 27.3026 71.5245 27.1829 71.678 26.9433C71.8315 26.7038 71.9075 26.3469 71.9062 25.8726C71.9062 25.4017 71.8294 25.0486 71.6759 24.8132C71.5224 24.5778 71.2712 24.46 70.9222 24.46C70.578 24.46 70.3284 24.5771 70.1736 24.8111C70.0187 25.0452 69.9419 25.399 69.9433 25.8726Z" fill="black"/>
<path d="M78.436 28.2598H77.1381V25.4813C77.1381 25.1384 77.0772 24.8803 76.9553 24.7089C76.8335 24.5375 76.6394 24.4518 76.3719 24.4518C76.0085 24.4518 75.7462 24.573 75.5851 24.8153C75.4241 25.0576 75.3432 25.4596 75.3425 26.0213V28.2598H74.0446V23.5029H75.0389L75.2134 24.1111H75.2857C75.4291 23.882 75.6371 23.7005 75.8836 23.5896C76.1559 23.4681 76.4517 23.4079 76.7499 23.4131C77.3006 23.4131 77.7205 23.5628 78.0096 23.8622C78.2987 24.1617 78.4419 24.5936 78.4391 25.1581L78.436 28.2598Z" fill="black"/>
<path d="M42.2037 37.4743L41.9528 36.8269H41.9187C41.7415 37.0676 41.5107 37.2638 41.2445 37.3999C40.9577 37.5165 40.6494 37.5707 40.34 37.5589C39.8822 37.5589 39.5225 37.4285 39.261 37.1676C38.9994 36.9067 38.8683 36.535 38.8676 36.0525C38.8676 35.5479 39.0441 35.1755 39.3973 34.9352C39.7504 34.695 40.2828 34.5625 40.9946 34.5377L41.8207 34.5119V34.3054C41.8207 33.8235 41.5739 33.5826 41.0803 33.5826C40.7003 33.5826 40.2529 33.6976 39.738 33.9275L39.3126 33.0477C39.8756 32.758 40.5009 32.6106 41.134 32.6182C41.7728 32.6182 42.2622 32.7559 42.6023 33.0312C42.9423 33.3066 43.1144 33.7292 43.1186 34.2992V37.4701L42.2037 37.4743ZM41.8207 35.2698L41.3188 35.2863C40.9409 35.2973 40.6601 35.3662 40.4763 35.4928C40.3847 35.5559 40.3111 35.6417 40.2628 35.7418C40.2144 35.8419 40.193 35.9529 40.2006 36.0638C40.2006 36.43 40.4105 36.6131 40.8304 36.6131C40.9621 36.6198 41.0937 36.6003 41.2177 36.5558C41.3418 36.5113 41.4558 36.4427 41.5532 36.354C41.6441 36.2643 41.7151 36.1566 41.7617 36.0378C41.8083 35.919 41.8294 35.7917 41.8238 35.6642L41.8207 35.2698Z" fill="black"/>
<path d="M46.8331 32.6265C47.0905 32.6169 47.3462 32.672 47.5768 32.787C47.8074 32.9019 48.0054 33.0729 48.1527 33.2842C48.4707 33.722 48.6297 34.3229 48.6297 35.087C48.6297 35.8725 48.4659 36.481 48.1382 36.9126C47.984 37.1215 47.7811 37.2896 47.5472 37.4022C47.3133 37.5148 47.0554 37.5687 46.7959 37.5589C46.237 37.5589 45.7988 37.3562 45.4815 36.9508H45.3916L45.1748 37.4743H44.1836V31.4174H45.4815V32.3983C45.4815 32.5934 45.4639 32.9073 45.4298 33.3379H45.4815C45.7871 32.8636 46.2376 32.6265 46.8331 32.6265ZM46.4201 33.6652C46.0986 33.6652 45.8645 33.7636 45.7179 33.9605C45.5703 34.1577 45.4928 34.484 45.4877 34.9373V35.0777C45.4877 35.5892 45.5634 35.9554 45.7148 36.1764C45.8663 36.3973 46.1072 36.5078 46.4376 36.5078C46.5668 36.509 46.694 36.4755 46.8058 36.4109C46.9177 36.3462 47.0102 36.2528 47.0737 36.1402C47.2313 35.8945 47.3101 35.5376 47.3101 35.0695C47.3101 34.6014 47.2306 34.2503 47.0716 34.0163C47.0026 33.9057 46.9059 33.8151 46.791 33.7535C46.6762 33.692 46.5472 33.6615 46.417 33.6652H46.4201Z" fill="black"/>
<path d="M52.7595 36.0639C52.7595 36.5519 52.5898 36.9237 52.2504 37.179C51.9111 37.4344 51.4041 37.5621 50.7295 37.5621C50.433 37.5661 50.1368 37.5426 49.8446 37.4919C49.6093 37.448 49.3794 37.3788 49.159 37.2854V36.2105C49.4209 36.3312 49.6937 36.4266 49.9737 36.4955C50.2341 36.566 50.5021 36.6045 50.7718 36.6101C51.2427 36.6101 51.4781 36.4724 51.4781 36.1971C51.4799 36.1515 51.4727 36.106 51.4567 36.0633C51.4407 36.0206 51.4164 35.9814 51.3852 35.9482C51.2882 35.8606 51.1789 35.7876 51.0609 35.7314C50.9081 35.6509 50.7037 35.5559 50.4486 35.4485C50.1628 35.3422 49.8907 35.2022 49.6381 35.0313C49.4782 34.9146 49.3495 34.7604 49.2633 34.5822C49.1807 34.3863 49.1409 34.1751 49.1466 33.9627C49.139 33.7709 49.1801 33.5804 49.266 33.4089C49.352 33.2374 49.48 33.0904 49.6381 32.9817C49.9651 32.7504 50.4297 32.6348 51.032 32.6348C51.61 32.6358 52.1806 32.7638 52.7037 33.0096L52.3124 33.9461C52.0739 33.8429 51.8519 33.7603 51.6443 33.6942C51.4392 33.6296 51.2254 33.5968 51.0103 33.5971C50.6276 33.5971 50.4362 33.7004 50.4362 33.9069C50.4388 33.9687 50.4572 34.0289 50.4895 34.0816C50.5219 34.1344 50.5671 34.178 50.6211 34.2084C50.8792 34.359 51.1505 34.4858 51.4316 34.5873C51.72 34.694 51.9943 34.8355 52.2484 35.0086C52.4106 35.1259 52.5421 35.2807 52.6314 35.4598C52.7192 35.6489 52.763 35.8555 52.7595 36.0639Z" fill="black"/>
<path d="M37.9176 14.7872V16.0294H36.122V19.5441H34.8231V14.7872H37.9176Z" fill="black"/>
<path d="M38.1985 37.4712V36.2301H36.1231V31.4122H34.8231V37.4712H38.1985Z" fill="black"/>
<path d="M36.122 28.2598H34.8231V23.5029H36.122V28.2598Z" fill="black"/>
<path d="M35.4724 22.9361C35.8636 22.9361 36.1808 22.6296 36.1808 22.2515C36.1808 21.8734 35.8636 21.5669 35.4724 21.5669C35.0812 21.5669 34.7641 21.8734 34.7641 22.2515C34.7641 22.6296 35.0812 22.9361 35.4724 22.9361Z" fill="black"/>
<path d="M67.8107 28.2598H66.5108V23.5029H67.8107V28.2598Z" fill="black"/>
<path d="M67.1607 22.9361C67.5519 22.9361 67.869 22.6296 67.869 22.2515C67.869 21.8734 67.5519 21.5669 67.1607 21.5669C66.7695 21.5669 66.4523 21.8734 66.4523 22.2515C66.4523 22.6296 66.7695 22.9361 67.1607 22.9361Z" fill="black"/>
<path d="M55.1758 19.5431H53.8779V14.7872H55.1758V19.5431Z" fill="black"/>
<path d="M54.5262 14.2203C54.9174 14.2203 55.2345 13.9138 55.2345 13.5357C55.2345 13.1576 54.9174 12.8511 54.5262 12.8511C54.135 12.8511 53.8178 13.1576 53.8178 13.5357C53.8178 13.9138 54.135 14.2203 54.5262 14.2203Z" fill="black"/>
</g>
<defs>
<clipPath id="clip0_722_13251">
<rect width="82.4024" height="37.118" fill="white" transform="translate(0.798798 0.440979)"/>
</clipPath>
</defs>
</svg>
