<svg width="195" height="19" viewBox="0 0 195 19" fill="none" xmlns="http://www.w3.org/2000/svg">
<path d="M9.12928 1.34475C9.19558 1.07956 9.30166 0.880664 9.44751 0.748067C9.59337 0.61547 9.75912 0.549172 9.94475 0.549172C10.1171 0.549172 10.2762 0.60884 10.4221 0.728177C10.5812 0.847515 10.6939 1.03315 10.7602 1.28508C10.7602 3.18122 10.747 5.01768 10.7204 6.79448C10.6939 8.57127 10.6276 10.4077 10.5215 12.3039C10.5215 12.3039 10.5282 12.3105 10.5414 12.3238H10.5215C10.5083 12.3901 10.5017 12.4497 10.5017 12.5028C10.5017 12.5425 10.5017 12.589 10.5017 12.642C10.4221 12.8541 10.3094 13.0133 10.1635 13.1193C10.0309 13.2254 9.88508 13.2785 9.72597 13.2785C9.48729 13.2785 9.26188 13.1724 9.04972 12.9602C9.0232 12.9072 8.99668 12.8608 8.97017 12.821C8.94365 12.7812 8.91713 12.7414 8.89061 12.7017H8.87072V12.6619C8.39337 11.853 7.90276 11.084 7.39889 10.3547C6.89503 9.61215 6.3779 8.8895 5.84751 8.18674C5.31713 7.47072 4.77348 6.76796 4.21657 6.07845C3.67293 5.37569 3.10939 4.65967 2.52597 3.93039C2.52597 4.63315 2.52597 5.31602 2.52597 5.97901C2.52597 6.62873 2.52597 7.29171 2.52597 7.96796C2.52597 8.63094 2.52597 9.32707 2.52597 10.0564C2.53923 10.7856 2.54586 11.5746 2.54586 12.4232C2.5326 12.7282 2.43978 12.9536 2.2674 13.0994C2.10829 13.2586 1.92928 13.3381 1.73039 13.3381C1.54475 13.3381 1.37238 13.2652 1.21326 13.1193C1.05414 12.9867 0.954696 12.7746 0.914917 12.4829C0.914917 10.6928 0.908287 8.88287 0.895028 7.05304C0.895028 5.20995 0.895028 3.39337 0.895028 1.60332C0.948066 1.36464 1.04751 1.17901 1.19337 1.04641C1.33923 0.913812 1.50497 0.847514 1.69061 0.847514C1.87624 0.847514 2.07514 0.920442 2.28729 1.0663C2.89724 1.79558 3.49392 2.5116 4.07735 3.21436C4.66077 3.90387 5.23094 4.6 5.78784 5.30276C6.35801 6.00553 6.90829 6.72818 7.43867 7.47072C7.96906 8.2 8.48619 8.96243 8.99005 9.75801C9.04309 8.29945 9.07624 6.90055 9.0895 5.56133C9.11602 4.2221 9.12928 2.81657 9.12928 1.34475ZM12.3268 8.12707C12.4727 7.70276 12.6517 7.29171 12.8638 6.89392C13.076 6.48287 13.3279 6.1116 13.6196 5.78011C13.9114 5.44862 14.2429 5.16354 14.6141 4.92486C14.9987 4.68619 15.423 4.51381 15.8871 4.40774C16.6561 4.23536 17.3257 4.29503 17.8959 4.58674C18.4793 4.87845 18.9434 5.29613 19.2882 5.83978C19.6329 6.38343 19.8583 7.00663 19.9644 7.70939C20.0837 8.3989 20.0572 9.06188 19.8848 9.69834C19.6859 10.4807 19.3346 11.2099 18.8307 11.8862C18.3268 12.5624 17.6904 13.053 16.9213 13.358C16.3511 13.5834 15.8009 13.663 15.2705 13.5967C14.7533 13.5436 14.2826 13.3779 13.8583 13.0994C13.4473 12.821 13.0959 12.4564 12.8042 12.0055C12.5125 11.5547 12.3136 11.0442 12.2075 10.474C12.1412 10.116 12.1147 9.76464 12.1279 9.41989C12.1545 9.07514 12.2009 8.73039 12.2672 8.38564L12.3268 8.12707ZM13.8782 8.58453C13.8252 8.86298 13.7854 9.12155 13.7589 9.36022C13.7456 9.58564 13.7589 9.8442 13.7987 10.1359C13.8384 10.4939 13.9511 10.8188 14.1368 11.1105C14.3224 11.389 14.5478 11.6077 14.813 11.7669C15.0782 11.9127 15.3699 11.9856 15.6882 11.9856C16.0196 11.9724 16.3511 11.8663 16.6826 11.6674C17.1202 11.4022 17.465 11.0575 17.7169 10.6331C17.9821 10.2088 18.181 9.75138 18.3136 9.26077C18.4196 8.86298 18.4395 8.43867 18.3732 7.98785C18.3202 7.53702 18.1876 7.13923 17.9754 6.79448C17.7633 6.44972 17.4782 6.20442 17.1202 6.05856C16.7622 5.89945 16.3379 5.91934 15.8473 6.11823C15.3169 6.34365 14.8992 6.68177 14.5942 7.1326C14.2893 7.58343 14.0506 8.0674 13.8782 8.58453ZM33.4609 10.8519C33.6863 10.6663 33.9051 10.5801 34.1172 10.5934C34.3426 10.6066 34.5216 10.6796 34.6542 10.8122C34.7868 10.9448 34.8598 11.1238 34.873 11.3492C34.8863 11.5613 34.8001 11.7801 34.6145 12.0055C34.1769 12.4829 33.6598 12.821 33.0631 13.0199C32.4796 13.2188 31.8962 13.2718 31.3128 13.179C30.7426 13.0994 30.2122 12.874 29.7216 12.5028C29.231 12.1315 28.8664 11.6276 28.6277 10.9912C28.4819 10.6331 28.3758 10.2552 28.3095 9.85746C28.2432 9.45967 28.2233 9.06851 28.2498 8.68398C28.2896 8.04751 28.4354 7.41105 28.6874 6.77459C28.9526 6.12486 29.304 5.56133 29.7415 5.08398C30.1924 4.60663 30.7161 4.26188 31.3128 4.04972C31.9227 3.82431 32.5857 3.82431 33.3017 4.04972C33.6598 4.16906 33.9846 4.31492 34.2763 4.48729C34.568 4.65967 34.8465 4.87845 35.1117 5.14365C35.2575 5.3558 35.3305 5.56133 35.3305 5.76022C35.3305 5.95912 35.2708 6.12486 35.1515 6.25746C35.0454 6.3768 34.8929 6.45635 34.694 6.49613C34.5084 6.53591 34.2962 6.49613 34.0575 6.3768C33.62 5.93923 33.1957 5.68066 32.7846 5.60111C32.3736 5.50829 31.989 5.54144 31.631 5.70055C31.2863 5.85967 30.9747 6.11823 30.6962 6.47624C30.431 6.82099 30.2255 7.21878 30.0796 7.66961C29.9338 8.10718 29.8609 8.57127 29.8609 9.06188C29.8609 9.53923 29.9537 9.98343 30.1393 10.3945C30.2984 10.7657 30.5106 11.0508 30.7758 11.2497C31.0542 11.4486 31.3459 11.568 31.6509 11.6077C31.9559 11.6343 32.2675 11.5878 32.5857 11.4685C32.9172 11.3359 33.2089 11.1304 33.4609 10.8519ZM44.3549 12.1448C44.3549 12.158 44.3483 12.1646 44.335 12.1646C44.4146 12.3503 44.4345 12.5227 44.3947 12.6818C44.3549 12.8409 44.2754 12.9669 44.156 13.0597C44.05 13.1657 43.9041 13.232 43.7185 13.2586C43.5461 13.2851 43.3538 13.2453 43.1417 13.1392C43.0223 13.0199 42.9096 12.8939 42.8035 12.7613C42.6975 12.6155 42.6047 12.4696 42.5251 12.3238C42.2599 12.5492 41.9748 12.7613 41.6698 12.9602C41.3649 13.1459 41.0599 13.2453 40.7549 13.2586C40.2245 13.2851 39.7008 13.2917 39.1837 13.2785C38.6665 13.2652 38.1759 13.0928 37.7118 12.7613C37.3273 12.4829 37.029 12.1514 36.8168 11.7669C36.6179 11.3823 36.4853 10.9779 36.419 10.5536C36.366 10.116 36.3726 9.67182 36.4389 9.22099C36.5052 8.77017 36.6179 8.33923 36.777 7.92818C36.8433 7.74254 36.9295 7.56354 37.0356 7.39116C37.1417 7.21878 37.2477 7.03978 37.3538 6.85414C37.4997 6.58895 37.6654 6.34365 37.8511 6.11823C38.0367 5.87956 38.2489 5.67403 38.4875 5.50166C38.6599 5.38232 38.8256 5.26298 38.9848 5.14365C39.1571 5.02431 39.3295 4.9116 39.5019 4.80553C39.6212 4.72597 39.8002 4.64641 40.0389 4.56685C40.2908 4.47403 40.556 4.40111 40.8345 4.34807C41.1262 4.28177 41.4113 4.24862 41.6897 4.24862C41.9815 4.24862 42.2268 4.2884 42.4256 4.36796C42.6113 4.34144 42.7903 4.38785 42.9627 4.50718C43.1483 4.62652 43.2875 4.81879 43.3803 5.08398C43.3803 5.98564 43.3737 6.89392 43.3605 7.80884C43.3472 8.72376 43.4069 9.63204 43.5395 10.5337C43.5527 10.653 43.5991 10.7989 43.6787 10.9713C43.7715 11.1304 43.8643 11.2895 43.9571 11.4486C44.0632 11.6077 44.156 11.7536 44.2356 11.8862C44.3152 12.0188 44.3549 12.105 44.3549 12.1448ZM41.829 10.7724C41.8555 10.7591 41.8754 10.7459 41.8886 10.7326C41.9019 10.7193 41.9218 10.7061 41.9483 10.6928C41.7759 9.89724 41.6897 9.07514 41.6897 8.22652C41.703 7.36464 41.7163 6.57569 41.7295 5.85967C41.6102 5.85967 41.4776 5.87293 41.3317 5.89945C41.1859 5.92597 41.04 5.96575 40.8942 6.01878C40.7616 6.05856 40.6356 6.09834 40.5163 6.13812C40.4102 6.1779 40.3306 6.21105 40.2776 6.23757C39.8798 6.4232 39.5417 6.66851 39.2632 6.97348C38.9848 7.26519 38.7527 7.59669 38.5671 7.96796C38.3947 8.32597 38.2621 8.7105 38.1693 9.12155C38.0765 9.51934 38.0301 9.92376 38.0301 10.3348C38.0566 10.4409 38.0897 10.547 38.1295 10.653C38.1693 10.7591 38.2024 10.8652 38.229 10.9713C38.2953 11.0376 38.3616 11.1105 38.4279 11.1901C38.5074 11.2696 38.587 11.3425 38.6665 11.4088C38.7859 11.4619 38.9052 11.5083 39.0245 11.5481C39.1439 11.5878 39.2632 11.6276 39.3826 11.6674C39.608 11.6674 39.8268 11.674 40.0389 11.6873C40.2511 11.7006 40.4632 11.674 40.6754 11.6077C40.8743 11.4751 41.0665 11.3425 41.2522 11.2099C41.4511 11.0773 41.6433 10.9315 41.829 10.7724ZM46.2632 6.07845C46.0643 5.97238 45.9184 5.84641 45.8256 5.70055C45.7328 5.5547 45.6864 5.40884 45.6864 5.26298C45.6864 5.06409 45.7593 4.89171 45.9052 4.74586C46.051 4.58674 46.2499 4.50718 46.5019 4.50718C46.6875 4.50718 46.9196 4.57348 47.198 4.70608C47.4765 4.83867 47.6952 4.98453 47.8544 5.14365C48.2654 4.7989 48.6897 4.51381 49.1273 4.2884C49.5649 4.06298 50.0091 3.95028 50.4599 3.95028C50.5925 3.95028 50.7847 3.98343 51.0367 4.04972C51.2886 4.11602 51.5339 4.21547 51.7726 4.34807C52.0245 4.48066 52.2433 4.65304 52.4289 4.86519C52.6146 5.07735 52.7074 5.32265 52.7074 5.60111C52.7074 5.82652 52.6345 6.01216 52.4886 6.15801C52.3428 6.29061 52.1637 6.35691 51.9516 6.35691C51.8057 6.35691 51.6731 6.31713 51.5538 6.23757C51.4477 6.14475 51.335 6.05193 51.2157 5.95912C51.1096 5.85304 50.9903 5.76022 50.8577 5.68066C50.7383 5.60111 50.5991 5.56133 50.44 5.56133C50.2544 5.56133 50.0488 5.62099 49.8234 5.74033C49.6113 5.84641 49.3925 5.97901 49.1671 6.13812C48.9549 6.29724 48.7494 6.46961 48.5505 6.65525C48.3516 6.84088 48.1792 7.00663 48.0334 7.15249V12.4431C48.0201 12.7481 47.9273 12.9735 47.7549 13.1193C47.5958 13.2785 47.4168 13.358 47.2179 13.358C47.0323 13.358 46.8599 13.2851 46.7008 13.1392C46.5417 13.0066 46.4422 12.7945 46.4024 12.5028V7.07293C46.4024 7.04641 46.3958 7.01989 46.3825 6.99337C46.3825 6.95359 46.3825 6.92044 46.3825 6.89392C46.3825 6.8674 46.3825 6.84088 46.3825 6.81436C46.3958 6.77459 46.4024 6.74144 46.4024 6.71492V6.13812C46.3494 6.1116 46.303 6.09171 46.2632 6.07845ZM60.9043 11.5878C61.0767 11.8265 61.143 12.0586 61.1032 12.284C61.0767 12.4961 60.9905 12.6685 60.8447 12.8011C60.7121 12.9204 60.5331 12.9801 60.3077 12.9801C60.0955 12.9669 59.8833 12.8541 59.6712 12.642C59.6049 12.5757 59.5452 12.5094 59.4922 12.4431C59.4391 12.3635 59.3994 12.2906 59.3728 12.2243C58.9751 12.5691 58.511 12.8343 57.9806 13.0199C57.4635 13.2188 56.9331 13.3182 56.3894 13.3182C55.859 13.3182 55.3485 13.2122 54.8579 13C54.3673 12.7746 53.9563 12.4298 53.6248 11.9657C53.3728 11.6077 53.1872 11.2099 53.0679 10.7724C52.9618 10.3215 52.9088 9.87072 52.9088 9.41989C52.9088 8.9558 52.9618 8.50497 53.0679 8.0674C53.1872 7.61657 53.3331 7.1989 53.5054 6.81436C53.6646 6.46961 53.89 6.15801 54.1817 5.87956C54.4867 5.60111 54.8049 5.37569 55.1364 5.20332C55.4414 5.03094 55.7795 4.89171 56.1507 4.78564C56.5353 4.6663 56.8999 4.6 57.2447 4.58674C57.5629 4.58674 57.8811 4.59337 58.1994 4.60663C58.5176 4.61989 58.8292 4.67293 59.1342 4.76575C59.1209 3.81105 59.1077 3.00884 59.0944 2.35912C59.0944 1.69613 59.0944 1.25193 59.0944 1.02652C59.1474 0.774586 59.2469 0.582321 59.3927 0.449724C59.5519 0.317128 59.711 0.25083 59.8701 0.25083C60.0425 0.23757 60.2082 0.290608 60.3673 0.409946C60.5264 0.529283 60.6458 0.714918 60.7253 0.966852V11.3691C60.7519 11.4088 60.7784 11.4486 60.8049 11.4884C60.8447 11.5149 60.8778 11.5481 60.9043 11.5878ZM59.1541 10.1558V9.87735C59.1541 9.38674 59.1541 8.84972 59.1541 8.2663C59.1541 7.66961 59.1474 7.10608 59.1342 6.57569L59.0148 6.51602C58.9751 6.4895 58.9353 6.46298 58.8955 6.43646C58.869 6.40994 58.8358 6.38343 58.7961 6.35691C58.3983 6.23757 57.9806 6.18453 57.543 6.19779C57.1054 6.21105 56.6944 6.29724 56.3099 6.45635C55.9253 6.60221 55.5806 6.82099 55.2756 7.11271C54.9839 7.40442 54.7784 7.77569 54.659 8.22652C54.553 8.63757 54.5132 8.99558 54.5397 9.30055C54.5662 9.60553 54.606 9.96354 54.659 10.3746C54.7121 10.4807 54.7585 10.5867 54.7983 10.6928C54.8513 10.7989 54.9043 10.905 54.9574 11.011L55.3552 11.4088C55.5143 11.4619 55.6668 11.5282 55.8126 11.6077C56.343 11.6608 56.827 11.6343 57.2646 11.5282C57.7154 11.4221 58.1463 11.1901 58.5574 10.832C58.5706 10.8055 58.5972 10.7724 58.6369 10.7326C58.69 10.6796 58.743 10.6265 58.7961 10.5735C58.8491 10.5204 58.8955 10.474 58.9353 10.4343C58.9883 10.3812 59.0215 10.3481 59.0347 10.3348L59.1541 10.1558ZM77.0235 11.5878C77.1959 11.8265 77.2622 12.0586 77.2224 12.284C77.1959 12.4961 77.1097 12.6685 76.9638 12.8011C76.8312 12.9204 76.6522 12.9801 76.4268 12.9801C76.2146 12.9669 76.0025 12.8541 75.7903 12.642C75.724 12.5757 75.6644 12.5094 75.6113 12.4431C75.5583 12.3635 75.5185 12.2906 75.492 12.2243C75.0942 12.5691 74.6301 12.8343 74.0997 13.0199C73.5826 13.2188 73.0522 13.3182 72.5086 13.3182C71.9782 13.3182 71.4677 13.2122 70.9771 13C70.4865 12.7746 70.0754 12.4298 69.7439 11.9657C69.492 11.6077 69.3064 11.2099 69.187 10.7724C69.0809 10.3215 69.0279 9.87072 69.0279 9.41989C69.0279 8.9558 69.0809 8.50497 69.187 8.0674C69.3064 7.61657 69.4522 7.1989 69.6246 6.81436C69.7837 6.46961 70.0091 6.15801 70.3008 5.87956C70.6058 5.60111 70.924 5.37569 71.2555 5.20332C71.5605 5.03094 71.8986 4.89171 72.2699 4.78564C72.6544 4.6663 73.0191 4.6 73.3638 4.58674C73.682 4.58674 74.0003 4.59337 74.3185 4.60663C74.6367 4.61989 74.9483 4.67293 75.2533 4.76575C75.2401 3.81105 75.2268 3.00884 75.2135 2.35912C75.2135 1.69613 75.2135 1.25193 75.2135 1.02652C75.2666 0.774586 75.366 0.582321 75.5119 0.449724C75.671 0.317128 75.8301 0.25083 75.9892 0.25083C76.1616 0.23757 76.3273 0.290608 76.4865 0.409946C76.6456 0.529283 76.7649 0.714918 76.8445 0.966852V11.3691C76.871 11.4088 76.8975 11.4486 76.924 11.4884C76.9638 11.5149 76.997 11.5481 77.0235 11.5878ZM75.2732 10.1558V9.87735C75.2732 9.38674 75.2732 8.84972 75.2732 8.2663C75.2732 7.66961 75.2666 7.10608 75.2533 6.57569L75.134 6.51602C75.0942 6.4895 75.0544 6.46298 75.0146 6.43646C74.9881 6.40994 74.955 6.38343 74.9152 6.35691C74.5174 6.23757 74.0997 6.18453 73.6622 6.19779C73.2246 6.21105 72.8135 6.29724 72.429 6.45635C72.0445 6.60221 71.6997 6.82099 71.3947 7.11271C71.103 7.40442 70.8975 7.77569 70.7782 8.22652C70.6721 8.63757 70.6323 8.99558 70.6588 9.30055C70.6854 9.60553 70.7251 9.96354 70.7782 10.3746C70.8312 10.4807 70.8776 10.5867 70.9174 10.6928C70.9704 10.7989 71.0235 10.905 71.0765 11.011L71.4743 11.4088C71.6334 11.4619 71.7859 11.5282 71.9318 11.6077C72.4622 11.6608 72.9461 11.6343 73.3837 11.5282C73.8345 11.4221 74.2655 11.1901 74.6765 10.832C74.6898 10.8055 74.7163 10.7724 74.7561 10.7326C74.8091 10.6796 74.8622 10.6265 74.9152 10.5735C74.9682 10.5204 75.0146 10.474 75.0544 10.4343C75.1075 10.3812 75.1406 10.3481 75.1539 10.3348L75.2732 10.1558ZM85.9513 10.6729C86.2298 10.5669 86.4685 10.5536 86.6674 10.6331C86.8663 10.7127 87.0055 10.8387 87.085 11.011C87.1779 11.1834 87.1911 11.3757 87.1248 11.5878C87.0718 11.8 86.9193 11.979 86.6674 12.1249C86.2298 12.3768 85.7591 12.6088 85.2552 12.821C84.7513 13.0331 84.2408 13.179 83.7237 13.2586C83.2066 13.3381 82.6961 13.3315 82.1922 13.2387C81.6884 13.1591 81.2044 12.9602 80.7403 12.642C80.1834 12.2575 79.7591 11.7403 79.4674 11.0906C79.1756 10.4276 79.0232 9.74475 79.0099 9.04199C78.9966 8.32597 79.1226 7.64309 79.3878 6.99337C79.6663 6.33039 80.0972 5.8 80.6806 5.40221C81.2906 4.99116 81.9535 4.68619 82.6696 4.48729C83.3856 4.27514 84.1082 4.24862 84.8375 4.40774C85.1955 4.48729 85.5204 4.65967 85.8121 4.92486C86.1038 5.1768 86.3359 5.47514 86.5082 5.81989C86.6939 6.15138 86.7933 6.50939 86.8066 6.89392C86.8198 7.26519 86.727 7.61657 86.5281 7.94807C86.3027 8.31934 85.9779 8.63757 85.5535 8.90276C85.1292 9.1547 84.6652 9.37348 84.1613 9.55912C83.6707 9.73149 83.1734 9.87735 82.6696 9.99669C82.179 10.116 81.748 10.2287 81.3768 10.3348C81.2176 10.3746 81.0652 10.3812 80.9193 10.3547C81.1182 10.779 81.4099 11.1304 81.7944 11.4088C82.1922 11.674 82.6828 11.7867 83.2663 11.747C83.7303 11.7204 84.1944 11.5945 84.6585 11.3691C85.1359 11.1304 85.5668 10.8983 85.9513 10.6729ZM82.0729 6.43646C81.5823 6.6884 81.2176 7.04641 80.979 7.5105C80.7403 7.96133 80.621 8.43867 80.621 8.94254C80.7138 8.87624 80.8132 8.8232 80.9193 8.78343C81.158 8.71713 81.3966 8.65083 81.6353 8.58453C81.8873 8.50497 82.1392 8.43204 82.3911 8.36575C82.5502 8.32597 82.7624 8.2663 83.0276 8.18674C83.306 8.10718 83.5911 8.01436 83.8828 7.90829C84.1745 7.80221 84.4397 7.68287 84.6784 7.55028C84.9171 7.40442 85.0762 7.2453 85.1558 7.07293C85.1823 6.63536 85.0762 6.33702 84.8375 6.1779C84.5989 6.01878 84.3138 5.93923 83.9823 5.93923C83.6508 5.93923 83.306 5.9989 82.948 6.11823C82.59 6.22431 82.2983 6.33039 82.0729 6.43646ZM89.1255 5.9989C88.8338 5.95912 88.615 5.85967 88.4692 5.70055C88.3366 5.54144 88.2703 5.36906 88.2703 5.18343C88.2703 4.99779 88.3432 4.81878 88.4891 4.64641C88.6482 4.46077 88.8802 4.36796 89.1852 4.36796H90.299V1.22541C90.3653 0.960221 90.4714 0.761326 90.6173 0.628729C90.7631 0.496133 90.9289 0.429835 91.1145 0.429835C91.2869 0.429835 91.446 0.489503 91.5918 0.60884C91.751 0.728177 91.8637 0.913812 91.93 1.16575V4.36796H93.8394C94.0913 4.43425 94.2769 4.54696 94.3963 4.70608C94.5156 4.85193 94.5753 5.01105 94.5753 5.18343C94.5753 5.36906 94.509 5.53481 94.3764 5.68066C94.2438 5.82652 94.0449 5.9326 93.7797 5.9989H91.93C91.9167 7.01989 91.9167 8.07403 91.93 9.16133C91.9432 10.2354 91.9499 11.2829 91.9499 12.3039C91.9499 12.6088 91.857 12.8409 91.6714 13C91.499 13.1459 91.32 13.2188 91.1344 13.2188C90.9487 13.2188 90.7764 13.1459 90.6173 13C90.4581 12.8674 90.3587 12.6552 90.3189 12.3635C90.3189 11.3293 90.3123 10.2685 90.299 9.18122C90.299 8.09392 90.299 7.03315 90.299 5.9989H89.1255ZM102.591 12.1448C102.591 12.158 102.585 12.1646 102.571 12.1646C102.651 12.3503 102.671 12.5227 102.631 12.6818C102.591 12.8409 102.512 12.9669 102.392 13.0597C102.286 13.1657 102.14 13.232 101.955 13.2586C101.782 13.2851 101.59 13.2453 101.378 13.1392C101.259 13.0199 101.146 12.8939 101.04 12.7613C100.934 12.6155 100.841 12.4696 100.761 12.3238C100.496 12.5492 100.211 12.7613 99.9062 12.9602C99.6012 13.1459 99.2962 13.2453 98.9913 13.2586C98.4609 13.2851 97.9371 13.2917 97.42 13.2785C96.9029 13.2652 96.4123 13.0928 95.9482 12.7613C95.5636 12.4829 95.2653 12.1514 95.0531 11.7669C94.8542 11.3823 94.7216 10.9779 94.6553 10.5536C94.6023 10.116 94.6089 9.67182 94.6752 9.22099C94.7415 8.77017 94.8542 8.33923 95.0134 7.92818C95.0797 7.74254 95.1658 7.56354 95.2719 7.39116C95.378 7.21878 95.4841 7.03978 95.5902 6.85414C95.736 6.58895 95.9018 6.34365 96.0874 6.11823C96.273 5.87956 96.4852 5.67403 96.7239 5.50166C96.8962 5.38232 97.062 5.26298 97.2211 5.14365C97.3935 5.02431 97.5658 4.9116 97.7382 4.80553C97.8576 4.72597 98.0366 4.64641 98.2752 4.56685C98.5272 4.47403 98.7924 4.40111 99.0708 4.34807C99.3625 4.28177 99.6476 4.24862 99.9261 4.24862C100.218 4.24862 100.463 4.2884 100.662 4.36796C100.848 4.34144 101.027 4.38785 101.199 4.50718C101.385 4.62652 101.524 4.81879 101.617 5.08398C101.617 5.98564 101.61 6.89392 101.597 7.80884C101.584 8.72376 101.643 9.63204 101.776 10.5337C101.789 10.653 101.835 10.7989 101.915 10.9713C102.008 11.1304 102.101 11.2895 102.193 11.4486C102.3 11.6077 102.392 11.7536 102.472 11.8862C102.551 12.0188 102.591 12.105 102.591 12.1448ZM100.065 10.7724C100.092 10.7591 100.112 10.7459 100.125 10.7326C100.138 10.7193 100.158 10.7061 100.185 10.6928C100.012 9.89724 99.9261 9.07514 99.9261 8.22652C99.9393 7.36464 99.9526 6.57569 99.9658 5.85967C99.8465 5.85967 99.7139 5.87293 99.5681 5.89945C99.4222 5.92597 99.2763 5.96575 99.1305 6.01878C98.9979 6.05856 98.8719 6.09834 98.7526 6.13812C98.6465 6.1779 98.567 6.21105 98.5139 6.23757C98.1161 6.4232 97.778 6.66851 97.4995 6.97348C97.2211 7.26519 96.989 7.59669 96.8034 7.96796C96.631 8.32597 96.4984 8.7105 96.4056 9.12155C96.3128 9.51934 96.2664 9.92376 96.2664 10.3348C96.2929 10.4409 96.3261 10.547 96.3658 10.653C96.4056 10.7591 96.4388 10.8652 96.4653 10.9713C96.5316 11.0376 96.5979 11.1105 96.6642 11.1901C96.7437 11.2696 96.8233 11.3425 96.9029 11.4088C97.0222 11.4619 97.1415 11.5083 97.2609 11.5481C97.3802 11.5878 97.4995 11.6276 97.6189 11.6674C97.8443 11.6674 98.0631 11.674 98.2752 11.6873C98.4874 11.7006 98.6995 11.674 98.9117 11.6077C99.1106 11.4751 99.3029 11.3425 99.4885 11.2099C99.6874 11.0773 99.8797 10.9315 100.065 10.7724ZM106.255 12.3635C106.242 12.6685 106.149 12.8939 105.976 13.0398C105.817 13.1989 105.638 13.2785 105.439 13.2785C105.254 13.2785 105.081 13.2055 104.922 13.0597C104.763 12.9271 104.664 12.7149 104.624 12.4232C104.611 11.1768 104.597 9.90387 104.584 8.60442C104.584 7.30497 104.578 6.03204 104.564 4.78564C104.631 4.52044 104.737 4.32155 104.883 4.18895C105.028 4.05635 105.194 3.99006 105.38 3.99006C105.552 3.99006 105.711 4.04972 105.857 4.16906C106.016 4.2884 106.129 4.47403 106.195 4.72597C106.209 5.97238 106.215 7.2453 106.215 8.54475C106.228 9.8442 106.242 11.1171 106.255 12.3635ZM104.425 1.54365C104.425 1.25193 104.518 1.00663 104.704 0.807736C104.889 0.595581 105.115 0.489503 105.38 0.489503C105.645 0.489503 105.87 0.595581 106.056 0.807736C106.255 1.00663 106.354 1.25193 106.354 1.54365C106.354 1.8221 106.255 2.0674 106.056 2.27956C105.87 2.47845 105.645 2.5779 105.38 2.5779C105.115 2.5779 104.889 2.47845 104.704 2.27956C104.518 2.0674 104.425 1.8221 104.425 1.54365ZM111.133 12.0453C111.371 12.2177 111.511 12.4166 111.55 12.642C111.59 12.8541 111.557 13.0398 111.451 13.1989C111.358 13.358 111.206 13.4707 110.994 13.537C110.795 13.6033 110.563 13.5702 110.297 13.4376C110.178 13.358 110.059 13.2785 109.939 13.1989C109.82 13.1193 109.694 13.0398 109.562 12.9602C109.442 12.8541 109.363 12.7547 109.323 12.6619C109.283 12.5691 109.25 12.4365 109.223 12.2641V1.22541C109.276 0.973481 109.376 0.781216 109.522 0.64862C109.681 0.516023 109.84 0.449724 109.999 0.449724C110.171 0.436465 110.337 0.489503 110.496 0.60884C110.655 0.728177 110.775 0.913812 110.854 1.16575V11.8663C110.894 11.8928 110.934 11.926 110.974 11.9657C111.027 11.9923 111.08 12.0188 111.133 12.0453ZM113.782 11.5481C113.663 11.3094 113.623 11.0972 113.663 10.9116C113.703 10.7127 113.782 10.5602 113.902 10.4541C114.034 10.3348 114.2 10.2751 114.399 10.2751C114.598 10.2751 114.803 10.3481 115.015 10.4939C115.32 10.8785 115.678 11.1768 116.089 11.389C116.514 11.6011 116.965 11.7271 117.442 11.7669L117.86 11.6475C117.966 11.568 118.039 11.5149 118.078 11.4884C118.118 11.4619 118.145 11.442 118.158 11.4287C118.184 11.4022 118.211 11.3691 118.237 11.3293C118.277 11.2895 118.337 11.2166 118.416 11.1105C118.443 11.0575 118.463 11.0044 118.476 10.9514C118.489 10.8983 118.509 10.8387 118.536 10.7724C118.536 10.7061 118.536 10.6464 118.536 10.5934C118.549 10.5403 118.556 10.4807 118.556 10.4144L118.436 10.0564C118.397 10.0033 118.35 9.95028 118.297 9.89724C118.257 9.8442 118.218 9.79116 118.178 9.73812C117.846 9.52597 117.515 9.37348 117.183 9.28066C116.852 9.18785 116.527 9.09503 116.209 9.00221C115.904 8.89613 115.599 8.76354 115.294 8.60442C115.002 8.4453 114.724 8.18674 114.458 7.82873C114.207 7.5105 114.067 7.14586 114.041 6.73481C114.028 6.3105 114.094 5.90608 114.24 5.52155C114.399 5.13702 114.624 4.7989 114.916 4.50718C115.221 4.20221 115.566 4.00995 115.95 3.93039C116.507 3.79779 117.071 3.78453 117.641 3.89061C118.224 3.99669 118.768 4.18232 119.272 4.44751C119.51 4.61989 119.65 4.81878 119.689 5.0442C119.729 5.25635 119.696 5.44199 119.59 5.60111C119.497 5.76022 119.345 5.87293 119.133 5.93923C118.934 6.00553 118.702 5.97238 118.436 5.83978C118.118 5.6674 117.78 5.5547 117.422 5.50166C117.077 5.44862 116.726 5.44862 116.368 5.50166C116.328 5.52818 116.282 5.54807 116.229 5.56133C116.189 5.57459 116.149 5.59448 116.109 5.62099C115.963 5.78011 115.857 5.93923 115.791 6.09834C115.725 6.2442 115.698 6.42983 115.712 6.65525C115.725 6.70829 115.758 6.78785 115.811 6.89392C115.851 6.94696 115.891 6.99337 115.93 7.03315C115.97 7.07293 116.01 7.11934 116.05 7.17238C116.368 7.34475 116.713 7.48398 117.084 7.59006C117.468 7.68287 117.84 7.79558 118.198 7.92818C118.556 8.04751 118.887 8.21326 119.192 8.42541C119.497 8.62431 119.736 8.92265 119.908 9.32044C120.226 10.0762 120.273 10.7724 120.047 11.4088C119.835 12.0453 119.398 12.5823 118.735 13.0199C118.562 13.126 118.37 13.2122 118.158 13.2785C117.946 13.358 117.747 13.3978 117.561 13.3978C116.845 13.3978 116.142 13.2387 115.453 12.9204C114.763 12.589 114.207 12.1315 113.782 11.5481ZM129.302 6.07845C129.103 5.97238 128.958 5.84641 128.865 5.70055C128.772 5.5547 128.725 5.40884 128.725 5.26298C128.725 5.06409 128.798 4.89171 128.944 4.74586C129.09 4.58674 129.289 4.50718 129.541 4.50718C129.727 4.50718 129.959 4.57348 130.237 4.70608C130.516 4.83867 130.734 4.98453 130.893 5.14365C131.304 4.7989 131.729 4.51381 132.166 4.2884C132.604 4.06298 133.048 3.95028 133.499 3.95028C133.632 3.95028 133.824 3.98343 134.076 4.04972C134.328 4.11602 134.573 4.21547 134.812 4.34807C135.064 4.48066 135.282 4.65304 135.468 4.86519C135.654 5.07735 135.746 5.32265 135.746 5.60111C135.746 5.82652 135.674 6.01216 135.528 6.15801C135.382 6.29061 135.203 6.35691 134.991 6.35691C134.845 6.35691 134.712 6.31713 134.593 6.23757C134.487 6.14475 134.374 6.05193 134.255 5.95912C134.149 5.85304 134.029 5.76022 133.897 5.68066C133.777 5.60111 133.638 5.56133 133.479 5.56133C133.293 5.56133 133.088 5.62099 132.862 5.74033C132.65 5.84641 132.432 5.97901 132.206 6.13812C131.994 6.29724 131.788 6.46961 131.59 6.65525C131.391 6.84088 131.218 7.00663 131.072 7.15249V12.4431C131.059 12.7481 130.966 12.9735 130.794 13.1193C130.635 13.2785 130.456 13.358 130.257 13.358C130.071 13.358 129.899 13.2851 129.74 13.1392C129.581 13.0066 129.481 12.7945 129.441 12.5028V7.07293C129.441 7.04641 129.435 7.01989 129.422 6.99337C129.422 6.95359 129.422 6.92044 129.422 6.89392C129.422 6.8674 129.422 6.84088 129.422 6.81436C129.435 6.77459 129.441 6.74144 129.441 6.71492V6.13812C129.388 6.1116 129.342 6.09171 129.302 6.07845ZM143.098 10.6729C143.376 10.5669 143.615 10.5536 143.814 10.6331C144.013 10.7127 144.152 10.8387 144.232 11.011C144.324 11.1834 144.338 11.3757 144.271 11.5878C144.218 11.8 144.066 11.979 143.814 12.1249C143.376 12.3768 142.906 12.6088 142.402 12.821C141.898 13.0331 141.387 13.179 140.87 13.2586C140.353 13.3381 139.843 13.3315 139.339 13.2387C138.835 13.1591 138.351 12.9602 137.887 12.642C137.33 12.2575 136.906 11.7403 136.614 11.0906C136.322 10.4276 136.17 9.74475 136.156 9.04199C136.143 8.32597 136.269 7.64309 136.534 6.99337C136.813 6.33039 137.244 5.8 137.827 5.40221C138.437 4.99116 139.1 4.68619 139.816 4.48729C140.532 4.27514 141.255 4.24862 141.984 4.40774C142.342 4.48729 142.667 4.65967 142.959 4.92486C143.25 5.1768 143.482 5.47514 143.655 5.81989C143.84 6.15138 143.94 6.50939 143.953 6.89392C143.966 7.26519 143.874 7.61657 143.675 7.94807C143.449 8.31934 143.124 8.63757 142.7 8.90276C142.276 9.1547 141.812 9.37348 141.308 9.55912C140.817 9.73149 140.32 9.87735 139.816 9.99669C139.325 10.116 138.895 10.2287 138.523 10.3348C138.364 10.3746 138.212 10.3812 138.066 10.3547C138.265 10.779 138.556 11.1304 138.941 11.4088C139.339 11.674 139.829 11.7867 140.413 11.747C140.877 11.7204 141.341 11.5945 141.805 11.3691C142.282 11.1304 142.713 10.8983 143.098 10.6729ZM139.219 6.43646C138.729 6.6884 138.364 7.04641 138.125 7.5105C137.887 7.96133 137.767 8.43867 137.767 8.94254C137.86 8.87624 137.96 8.8232 138.066 8.78343C138.304 8.71713 138.543 8.65083 138.782 8.58453C139.034 8.50497 139.286 8.43204 139.538 8.36575C139.697 8.32597 139.909 8.2663 140.174 8.18674C140.453 8.10718 140.738 8.01436 141.029 7.90829C141.321 7.80221 141.586 7.68287 141.825 7.55028C142.064 7.40442 142.223 7.2453 142.302 7.07293C142.329 6.63536 142.223 6.33702 141.984 6.1779C141.745 6.01878 141.46 5.93923 141.129 5.93923C140.797 5.93923 140.453 5.9989 140.095 6.11823C139.736 6.22431 139.445 6.33039 139.219 6.43646ZM152.99 17.0972C152.977 17.389 152.891 17.6077 152.732 17.7536C152.572 17.9127 152.393 17.9923 152.195 17.9923C152.009 18.0055 151.83 17.9392 151.658 17.7934C151.498 17.6608 151.399 17.4486 151.359 17.1569V12.642C150.882 12.8276 150.404 12.9403 149.927 12.9801C149.649 13.0066 149.33 13.0133 148.972 13C148.628 12.9735 148.323 12.9204 148.058 12.8409C147.381 12.6552 146.851 12.3304 146.466 11.8663C146.095 11.4022 145.843 10.8785 145.711 10.295C145.578 9.69834 145.551 9.08177 145.631 8.4453C145.711 7.79558 145.863 7.19227 146.088 6.63536C146.261 6.21105 146.506 5.84641 146.824 5.54144C147.156 5.23646 147.527 4.99116 147.938 4.80553C148.349 4.60663 148.78 4.4674 149.231 4.38785C149.695 4.30829 150.139 4.2884 150.564 4.32818C151.001 4.36796 151.392 4.47403 151.737 4.64641C151.949 4.50055 152.181 4.47403 152.433 4.56685C152.698 4.65967 152.884 4.87845 152.99 5.2232V17.0972ZM148.018 11.0707C148.575 11.2961 149.145 11.3956 149.728 11.3691C150.312 11.3293 150.855 11.1569 151.359 10.8519V6.33702C151.293 6.29724 151.253 6.25083 151.24 6.19779C150.922 6.06519 150.577 5.98564 150.206 5.95912C149.848 5.9326 149.496 5.96575 149.151 6.05856C148.82 6.15138 148.515 6.30387 148.237 6.51602C147.958 6.72818 147.733 7 147.56 7.33149C147.335 7.76906 147.222 8.23978 147.222 8.74365C147.222 9.24751 147.262 9.73812 147.341 10.2155C147.395 10.295 147.441 10.3812 147.481 10.474C147.534 10.5536 147.587 10.6398 147.64 10.7326C147.706 10.7989 147.766 10.8586 147.819 10.9116C147.885 10.9514 147.951 11.0044 148.018 11.0707ZM162.948 11.6276C163.093 11.8133 163.166 12.0188 163.166 12.2442C163.166 12.4696 163.093 12.6552 162.948 12.8011C162.802 12.9337 162.623 13 162.411 13C162.119 13 161.867 12.8674 161.655 12.6022C161.443 12.3238 161.264 12.0122 161.118 11.6674C160.773 12.0387 160.369 12.3569 159.905 12.6221C159.44 12.874 158.963 13 158.472 13C158.114 13 157.77 12.9403 157.438 12.821C157.107 12.6884 156.795 12.516 156.503 12.3039C156.225 12.0785 155.973 11.8199 155.748 11.5282C155.535 11.2365 155.376 10.9315 155.27 10.6133C155.164 10.2685 155.091 9.89061 155.051 9.47956C155.012 9.05525 154.992 8.61768 154.992 8.16685C154.992 7.6232 155.005 7.09282 155.032 6.57569C155.058 6.05856 155.071 5.60111 155.071 5.20332C155.138 4.93812 155.244 4.73923 155.39 4.60663C155.535 4.47403 155.701 4.40774 155.887 4.40774C156.059 4.40774 156.218 4.4674 156.364 4.58674C156.523 4.70608 156.636 4.89171 156.702 5.14365C156.702 5.76685 156.689 6.37017 156.663 6.95359C156.649 7.52376 156.643 8.1337 156.643 8.78343C156.643 9.52597 156.802 10.1359 157.12 10.6133C157.438 11.0906 157.869 11.3293 158.413 11.3293C158.612 11.3293 158.811 11.2895 159.009 11.2099C159.208 11.1304 159.394 11.0243 159.566 10.8917C159.739 10.7591 159.898 10.6066 160.044 10.4343C160.19 10.2619 160.322 10.0895 160.442 9.91713C160.468 9.89061 160.501 9.87072 160.541 9.85746C160.581 9.83094 160.614 9.80442 160.64 9.7779C160.561 9.11492 160.521 8.4453 160.521 7.76906C160.521 7.38453 160.521 7 160.521 6.61547C160.534 6.21768 160.567 5.85967 160.621 5.54144C160.687 5.20994 160.786 4.94475 160.919 4.74586C161.065 4.5337 161.264 4.42762 161.516 4.42762C161.714 4.42762 161.893 4.50718 162.053 4.6663C162.212 4.81216 162.291 5.03094 162.291 5.32265C162.291 5.62762 162.265 5.9989 162.212 6.43646C162.172 6.87403 162.152 7.33149 162.152 7.80884C162.152 8.18011 162.165 8.55138 162.192 8.92265C162.218 9.29392 162.258 9.65193 162.311 9.99669C162.377 10.3282 162.457 10.6331 162.55 10.9116C162.656 11.1901 162.788 11.4287 162.948 11.6276ZM166.53 12.3635C166.517 12.6685 166.424 12.8939 166.252 13.0398C166.093 13.1989 165.914 13.2785 165.715 13.2785C165.529 13.2785 165.357 13.2055 165.198 13.0597C165.039 12.9271 164.939 12.7149 164.899 12.4232C164.886 11.1768 164.873 9.90387 164.86 8.60442C164.86 7.30497 164.853 6.03204 164.84 4.78564C164.906 4.52044 165.012 4.32155 165.158 4.18895C165.304 4.05635 165.47 3.99006 165.655 3.99006C165.828 3.99006 165.987 4.04972 166.133 4.16906C166.292 4.2884 166.404 4.47403 166.471 4.72597C166.484 5.97238 166.491 7.2453 166.491 8.54475C166.504 9.8442 166.517 11.1171 166.53 12.3635ZM164.7 1.54365C164.7 1.25193 164.793 1.00663 164.979 0.807736C165.165 0.595581 165.39 0.489503 165.655 0.489503C165.92 0.489503 166.146 0.595581 166.331 0.807736C166.53 1.00663 166.63 1.25193 166.63 1.54365C166.63 1.8221 166.53 2.0674 166.331 2.27956C166.146 2.47845 165.92 2.5779 165.655 2.5779C165.39 2.5779 165.165 2.47845 164.979 2.27956C164.793 2.0674 164.7 1.8221 164.7 1.54365ZM169.539 6.07845C169.34 5.97238 169.194 5.84641 169.101 5.70055C169.008 5.5547 168.962 5.40884 168.962 5.26298C168.962 5.06409 169.035 4.89171 169.181 4.74586C169.326 4.58674 169.525 4.50718 169.777 4.50718C169.963 4.50718 170.195 4.57348 170.473 4.70608C170.752 4.83867 170.971 4.98453 171.13 5.14365C171.541 4.7989 171.965 4.51381 172.403 4.2884C172.84 4.06298 173.284 3.95028 173.735 3.95028C173.868 3.95028 174.06 3.98343 174.312 4.04972C174.564 4.11602 174.809 4.21547 175.048 4.34807C175.3 4.48066 175.519 4.65304 175.704 4.86519C175.89 5.07735 175.983 5.32265 175.983 5.60111C175.983 5.82652 175.91 6.01216 175.764 6.15801C175.618 6.29061 175.439 6.35691 175.227 6.35691C175.081 6.35691 174.949 6.31713 174.829 6.23757C174.723 6.14475 174.61 6.05193 174.491 5.95912C174.385 5.85304 174.266 5.76022 174.133 5.68066C174.014 5.60111 173.874 5.56133 173.715 5.56133C173.53 5.56133 173.324 5.62099 173.099 5.74033C172.887 5.84641 172.668 5.97901 172.442 6.13812C172.23 6.29724 172.025 6.46961 171.826 6.65525C171.627 6.84088 171.455 7.00663 171.309 7.15249V12.4431C171.295 12.7481 171.203 12.9735 171.03 13.1193C170.871 13.2785 170.692 13.358 170.493 13.358C170.308 13.358 170.135 13.2851 169.976 13.1392C169.817 13.0066 169.718 12.7945 169.678 12.5028V7.07293C169.678 7.04641 169.671 7.01989 169.658 6.99337C169.658 6.95359 169.658 6.92044 169.658 6.89392C169.658 6.8674 169.658 6.84088 169.658 6.81436C169.671 6.77459 169.678 6.74144 169.678 6.71492V6.13812C169.625 6.1116 169.578 6.09171 169.539 6.07845ZM183.334 10.6729C183.613 10.5669 183.851 10.5536 184.05 10.6331C184.249 10.7127 184.388 10.8387 184.468 11.011C184.561 11.1834 184.574 11.3757 184.508 11.5878C184.455 11.8 184.302 11.979 184.05 12.1249C183.613 12.3768 183.142 12.6088 182.638 12.821C182.134 13.0331 181.624 13.179 181.107 13.2586C180.589 13.3381 180.079 13.3315 179.575 13.2387C179.071 13.1591 178.587 12.9602 178.123 12.642C177.566 12.2575 177.142 11.7403 176.85 11.0906C176.558 10.4276 176.406 9.74475 176.393 9.04199C176.379 8.32597 176.505 7.64309 176.771 6.99337C177.049 6.33039 177.48 5.8 178.063 5.40221C178.673 4.99116 179.336 4.68619 180.052 4.48729C180.768 4.27514 181.491 4.24862 182.22 4.40774C182.578 4.48729 182.903 4.65967 183.195 4.92486C183.487 5.1768 183.719 5.47514 183.891 5.81989C184.077 6.15138 184.176 6.50939 184.189 6.89392C184.203 7.26519 184.11 7.61657 183.911 7.94807C183.686 8.31934 183.361 8.63757 182.936 8.90276C182.512 9.1547 182.048 9.37348 181.544 9.55912C181.053 9.73149 180.556 9.87735 180.052 9.99669C179.562 10.116 179.131 10.2287 178.76 10.3348C178.6 10.3746 178.448 10.3812 178.302 10.3547C178.501 10.779 178.793 11.1304 179.177 11.4088C179.575 11.674 180.066 11.7867 180.649 11.747C181.113 11.7204 181.577 11.5945 182.041 11.3691C182.519 11.1304 182.95 10.8983 183.334 10.6729ZM179.456 6.43646C178.965 6.6884 178.6 7.04641 178.362 7.5105C178.123 7.96133 178.004 8.43867 178.004 8.94254C178.097 8.87624 178.196 8.8232 178.302 8.78343C178.541 8.71713 178.779 8.65083 179.018 8.58453C179.27 8.50497 179.522 8.43204 179.774 8.36575C179.933 8.32597 180.145 8.2663 180.41 8.18674C180.689 8.10718 180.974 8.01436 181.266 7.90829C181.557 7.80221 181.823 7.68287 182.061 7.55028C182.3 7.40442 182.459 7.2453 182.539 7.07293C182.565 6.63536 182.459 6.33702 182.22 6.1779C181.982 6.01878 181.697 5.93923 181.365 5.93923C181.034 5.93923 180.689 5.9989 180.331 6.11823C179.973 6.22431 179.681 6.33039 179.456 6.43646ZM193.988 11.5878C194.161 11.8265 194.227 12.0586 194.187 12.284C194.161 12.4961 194.075 12.6685 193.929 12.8011C193.796 12.9204 193.617 12.9801 193.392 12.9801C193.179 12.9669 192.967 12.8541 192.755 12.642C192.689 12.5757 192.629 12.5094 192.576 12.4431C192.523 12.3635 192.483 12.2906 192.457 12.2243C192.059 12.5691 191.595 12.8343 191.065 13.0199C190.547 13.2188 190.017 13.3182 189.473 13.3182C188.943 13.3182 188.433 13.2122 187.942 13C187.451 12.7746 187.04 12.4298 186.709 11.9657C186.457 11.6077 186.271 11.2099 186.152 10.7724C186.046 10.3215 185.993 9.87072 185.993 9.41989C185.993 8.9558 186.046 8.50497 186.152 8.0674C186.271 7.61657 186.417 7.1989 186.589 6.81436C186.749 6.46961 186.974 6.15801 187.266 5.87956C187.571 5.60111 187.889 5.37569 188.22 5.20332C188.525 5.03094 188.863 4.89171 189.235 4.78564C189.619 4.6663 189.984 4.6 190.329 4.58674C190.647 4.58674 190.965 4.59337 191.283 4.60663C191.602 4.61989 191.913 4.67293 192.218 4.76575C192.205 3.81105 192.192 3.00884 192.178 2.35912C192.178 1.69613 192.178 1.25193 192.178 1.02652C192.231 0.774586 192.331 0.582321 192.477 0.449724C192.636 0.317128 192.795 0.25083 192.954 0.25083C193.126 0.23757 193.292 0.290608 193.451 0.409946C193.61 0.529283 193.73 0.714918 193.809 0.966852V11.3691C193.836 11.4088 193.862 11.4486 193.889 11.4884C193.929 11.5149 193.962 11.5481 193.988 11.5878ZM192.238 10.1558V9.87735C192.238 9.38674 192.238 8.84972 192.238 8.2663C192.238 7.66961 192.231 7.10608 192.218 6.57569L192.099 6.51602C192.059 6.4895 192.019 6.46298 191.979 6.43646C191.953 6.40994 191.92 6.38343 191.88 6.35691C191.482 6.23757 191.065 6.18453 190.627 6.19779C190.189 6.21105 189.778 6.29724 189.394 6.45635C189.009 6.60221 188.665 6.82099 188.36 7.11271C188.068 7.40442 187.862 7.77569 187.743 8.22652C187.637 8.63757 187.597 8.99558 187.624 9.30055C187.65 9.60553 187.69 9.96354 187.743 10.3746C187.796 10.4807 187.842 10.5867 187.882 10.6928C187.935 10.7989 187.988 10.905 188.041 11.011L188.439 11.4088C188.598 11.4619 188.751 11.5282 188.897 11.6077C189.427 11.6608 189.911 11.6343 190.349 11.5282C190.799 11.4221 191.23 11.1901 191.641 10.832C191.655 10.8055 191.681 10.7724 191.721 10.7326C191.774 10.6796 191.827 10.6265 191.88 10.5735C191.933 10.5204 191.979 10.474 192.019 10.4343C192.072 10.3812 192.105 10.3481 192.119 10.3348L192.238 10.1558Z" fill="#1A1A1A"/>
</svg>
