<svg width="355" height="58" viewBox="0 0 355 58" fill="none" xmlns="http://www.w3.org/2000/svg">
<g filter="url(#filter0_b_832_122)">
<path d="M0 25.6C0 16.6392 0 12.1587 1.7439 8.73615C3.27787 5.72556 5.72556 3.27787 8.73615 1.7439C12.1587 0 16.6392 0 25.6 0H329.4C338.361 0 342.841 0 346.264 1.7439C349.274 3.27787 351.722 5.72556 353.256 8.73615C355 12.1587 355 16.6392 355 25.6V34C355 42.4008 355 46.6012 353.365 49.8099C351.927 52.6323 349.632 54.927 346.81 56.3651C343.601 58 339.401 58 331 58H24C15.5992 58 11.3988 58 8.19014 56.3651C5.36771 54.927 3.073 52.6323 1.6349 49.8099C0 46.6012 0 42.4008 0 34V25.6Z" fill="#252525" fill-opacity="0.5"/>
<rect x="10" y="10" width="38" height="38" rx="8" fill="url(#paint0_linear_832_122)"/>
<mask id="mask0_832_122" style="mask-type:luminance" maskUnits="userSpaceOnUse" x="17" y="17" width="24" height="24">
<path d="M41 17.5H17V40.5H41V17.5Z" fill="white"/>
</mask>
<g mask="url(#mask0_832_122)">
<path d="M18.6364 40.4998H22.4546V28.6513L17 23.4241V38.4089C17 39.5659 17.7336 40.4998 18.6364 40.4998Z" fill="#4285F4"/>
<path d="M35.5454 40.4998H39.3636C40.2692 40.4998 41 39.5624 41 38.4089V23.4241L35.5454 28.6513" fill="#34A853"/>
<path d="M35.5454 19.591V28.6516L41 23.4243V20.6364C41 18.0507 38.69 16.5766 37.0727 18.1273" fill="#FBBC04"/>
<path d="M22.4546 28.6514V19.5908L29.0001 25.8635L35.5455 19.5908V28.6514L29.0001 34.9242" fill="#EA4335"/>
<path d="M17 20.6364V23.4243L22.4546 28.6516V19.591L20.9273 18.1273C19.3073 16.5766 17 18.0507 17 20.6364Z" fill="#C5221F"/>
</g>
<g clip-path="url(#clip0_832_122)">
<path d="M59.076 25V14.0909H63.1669C64.005 14.0909 64.7081 14.2365 65.2763 14.5277C65.848 14.8189 66.2795 15.2273 66.5707 15.7528C66.8654 16.2749 67.0128 16.8839 67.0128 17.5799C67.0128 18.2795 66.8636 18.8867 66.5653 19.4016C66.2706 19.913 65.8356 20.3089 65.2603 20.5895C64.685 20.8665 63.9783 21.005 63.1403 21.005H60.2266V19.3643H62.8739C63.364 19.3643 63.7653 19.2969 64.0778 19.1619C64.3903 19.0234 64.6211 18.8228 64.7702 18.56C64.9229 18.2937 64.9993 17.967 64.9993 17.5799C64.9993 17.1928 64.9229 16.8626 64.7702 16.5891C64.6175 16.3121 64.3849 16.1026 64.0724 15.9606C63.7599 15.815 63.3569 15.7422 62.8633 15.7422H61.0522V25H59.076ZM64.7116 20.0568L67.4123 25H65.207L62.5543 20.0568H64.7116ZM70.3081 14.0909V25H68.3319V14.0909H70.3081ZM71.9481 25V14.0909H73.9243V23.3434H78.729V25H71.9481ZM85.4607 25L82.3818 14.0909H84.5072L86.4727 22.1076H86.574L88.6727 14.0909H90.6063L92.7103 22.1129H92.8062L94.7718 14.0909H96.8971L93.8183 25H91.8687L89.6847 17.3455H89.5995L87.4102 25H85.4607ZM97.6822 25V16.8182H99.6104V25H97.6822ZM98.6516 15.657C98.3462 15.657 98.0835 15.5558 97.8633 15.3533C97.6431 15.1474 97.533 14.9006 97.533 14.6129C97.533 14.3217 97.6431 14.0749 97.8633 13.8725C98.0835 13.6665 98.3462 13.5636 98.6516 13.5636C98.9606 13.5636 99.2234 13.6665 99.44 13.8725C99.6602 14.0749 99.7702 14.3217 99.7702 14.6129C99.7702 14.9006 99.6602 15.1474 99.44 15.3533C99.2234 15.5558 98.9606 15.657 98.6516 15.657ZM104.13 25.1438C103.487 25.1438 102.911 24.9787 102.404 24.6484C101.896 24.3182 101.495 23.8388 101.2 23.2102C100.905 22.5817 100.758 21.8182 100.758 20.9197C100.758 20.0107 100.907 19.2436 101.205 18.6186C101.507 17.9901 101.914 17.516 102.425 17.1964C102.936 16.8732 103.506 16.7116 104.135 16.7116C104.614 16.7116 105.008 16.7933 105.317 16.9567C105.626 17.1165 105.871 17.31 106.052 17.5373C106.234 17.761 106.374 17.9723 106.473 18.1712H106.553V14.0909H108.487V25H106.59V23.7109H106.473C106.374 23.9098 106.23 24.1211 106.042 24.3448C105.854 24.565 105.605 24.7532 105.296 24.9094C104.987 25.0657 104.598 25.1438 104.13 25.1438ZM104.668 23.5618C105.076 23.5618 105.424 23.4517 105.712 23.2315C105.999 23.0078 106.218 22.6971 106.367 22.2994C106.516 21.9016 106.59 21.4382 106.59 20.9091C106.59 20.38 106.516 19.9201 106.367 19.5295C106.221 19.1388 106.005 18.8352 105.717 18.6186C105.433 18.402 105.083 18.2937 104.668 18.2937C104.238 18.2937 103.879 18.4055 103.592 18.6293C103.304 18.853 103.087 19.1619 102.942 19.5561C102.796 19.9503 102.723 20.4013 102.723 20.9091C102.723 21.4205 102.796 21.8768 102.942 22.2781C103.091 22.6758 103.309 22.9901 103.597 23.2209C103.888 23.4482 104.245 23.5618 104.668 23.5618ZM113.6 28.2386C112.907 28.2386 112.313 28.1445 111.815 27.9563C111.318 27.7717 110.919 27.5231 110.617 27.2106C110.315 26.8981 110.105 26.5518 109.988 26.1719L111.725 25.7511C111.803 25.9109 111.917 26.0689 112.066 26.2251C112.215 26.3849 112.415 26.5163 112.668 26.6193C112.923 26.7259 113.245 26.7791 113.632 26.7791C114.179 26.7791 114.631 26.646 114.99 26.3796C115.349 26.1168 115.528 25.6836 115.528 25.0799V23.5298H115.432C115.333 23.7287 115.187 23.9329 114.995 24.1424C114.807 24.3519 114.557 24.5277 114.244 24.6697C113.935 24.8118 113.547 24.8828 113.078 24.8828C112.449 24.8828 111.879 24.7354 111.368 24.4407C110.86 24.1424 110.455 23.6985 110.153 23.109C109.855 22.516 109.706 21.7738 109.706 20.8825C109.706 19.984 109.855 19.2259 110.153 18.608C110.455 17.9865 110.862 17.516 111.373 17.1964C111.885 16.8732 112.455 16.7116 113.083 16.7116C113.563 16.7116 113.957 16.7933 114.266 16.9567C114.578 17.1165 114.827 17.31 115.011 17.5373C115.196 17.761 115.336 17.9723 115.432 18.1712H115.539V16.8182H117.44V25.1332C117.44 25.8327 117.273 26.4116 116.94 26.8697C116.606 27.3278 116.15 27.6705 115.571 27.8977C114.992 28.125 114.335 28.2386 113.6 28.2386ZM113.616 23.37C114.024 23.37 114.372 23.2706 114.66 23.0717C114.947 22.8729 115.166 22.587 115.315 22.2141C115.464 21.8413 115.539 21.3938 115.539 20.8718C115.539 20.3569 115.464 19.9059 115.315 19.5188C115.169 19.1317 114.953 18.8317 114.665 18.6186C114.381 18.402 114.031 18.2937 113.616 18.2937C113.186 18.2937 112.827 18.4055 112.54 18.6293C112.252 18.853 112.036 19.1602 111.89 19.5508C111.744 19.9379 111.672 20.3782 111.672 20.8718C111.672 21.3725 111.744 21.8111 111.89 22.1875C112.039 22.5604 112.257 22.8516 112.545 23.0611C112.836 23.267 113.193 23.37 113.616 23.37ZM122.539 25.1598C121.718 25.1598 121.01 24.9893 120.413 24.6484C119.82 24.304 119.364 23.8175 119.044 23.1889C118.725 22.5568 118.565 21.8129 118.565 20.957C118.565 20.1154 118.725 19.3768 119.044 18.7411C119.368 18.1019 119.819 17.6048 120.397 17.2496C120.976 16.891 121.656 16.7116 122.438 16.7116C122.942 16.7116 123.418 16.7933 123.865 16.9567C124.316 17.1165 124.714 17.3651 125.058 17.7024C125.406 18.0398 125.68 18.4695 125.879 18.9915C126.077 19.5099 126.177 20.1278 126.177 20.8452V21.4364H119.471V20.1367H124.328C124.325 19.7674 124.245 19.4389 124.089 19.1513C123.933 18.8601 123.714 18.631 123.434 18.4641C123.157 18.2972 122.833 18.2138 122.464 18.2138C122.07 18.2138 121.724 18.3097 121.425 18.5014C121.127 18.6896 120.895 18.9382 120.728 19.2472C120.564 19.5526 120.481 19.8881 120.477 20.2539V21.3885C120.477 21.8643 120.564 22.2727 120.738 22.6136C120.912 22.951 121.156 23.2102 121.468 23.3913C121.781 23.5689 122.146 23.6577 122.565 23.6577C122.846 23.6577 123.1 23.6186 123.327 23.5405C123.554 23.4588 123.751 23.3398 123.918 23.1836C124.085 23.0273 124.211 22.8338 124.297 22.603L126.097 22.8054C125.983 23.2812 125.767 23.6967 125.447 24.0518C125.131 24.4034 124.726 24.6768 124.233 24.8722C123.739 25.0639 123.174 25.1598 122.539 25.1598ZM131.394 16.8182V18.3097H126.69V16.8182H131.394ZM127.851 14.858H129.78V22.5391C129.78 22.7983 129.819 22.9972 129.897 23.1357C129.979 23.2706 130.085 23.3629 130.217 23.4126C130.348 23.4624 130.494 23.4872 130.653 23.4872C130.774 23.4872 130.884 23.4783 130.984 23.4606C131.087 23.4428 131.165 23.4268 131.218 23.4126L131.543 24.9201C131.44 24.9556 131.293 24.9947 131.101 25.0373C130.913 25.0799 130.682 25.1048 130.408 25.1119C129.925 25.1261 129.49 25.0533 129.103 24.8935C128.716 24.7301 128.409 24.478 128.182 24.1371C127.958 23.7962 127.848 23.37 127.851 22.8587V14.858Z" fill="white"/>
<path d="M295.064 24.1293C294.455 24.1293 293.912 24.0246 293.435 23.8153C292.961 23.6061 292.584 23.3152 292.303 22.9428C292.027 22.5674 291.876 22.1319 291.851 21.6364H293.014C293.039 21.9411 293.144 22.2042 293.328 22.4258C293.513 22.6443 293.755 22.8136 294.053 22.9336C294.352 23.0536 294.683 23.1136 295.046 23.1136C295.452 23.1136 295.812 23.0429 296.126 22.9013C296.44 22.7597 296.686 22.5627 296.865 22.3104C297.043 22.058 297.132 21.7656 297.132 21.4332C297.132 21.0855 297.046 20.7792 296.874 20.5146C296.701 20.2468 296.449 20.0375 296.117 19.8867C295.784 19.7359 295.378 19.6605 294.898 19.6605H294.141V18.6449H294.898C295.273 18.6449 295.603 18.5772 295.886 18.4418C296.172 18.3063 296.395 18.1155 296.555 17.8693C296.718 17.6231 296.8 17.3338 296.8 17.0014C296.8 16.6813 296.729 16.4028 296.588 16.1658C296.446 15.9289 296.246 15.7442 295.987 15.6119C295.732 15.4795 295.43 15.4134 295.083 15.4134C294.756 15.4134 294.449 15.4734 294.159 15.5934C293.873 15.7103 293.639 15.8812 293.458 16.1058C293.276 16.3274 293.178 16.5952 293.162 16.9091H292.054C292.073 16.4136 292.222 15.9796 292.502 15.6072C292.782 15.2318 293.148 14.9394 293.601 14.7301C294.056 14.5208 294.556 14.4162 295.101 14.4162C295.686 14.4162 296.187 14.5347 296.606 14.7717C297.025 15.0056 297.346 15.3149 297.571 15.6996C297.796 16.0843 297.908 16.4998 297.908 16.946C297.908 17.4785 297.768 17.9324 297.488 18.3079C297.211 18.6834 296.834 18.9434 296.357 19.0881V19.1619C296.954 19.2604 297.42 19.5143 297.756 19.9237C298.091 20.3299 298.259 20.8331 298.259 21.4332C298.259 21.9472 298.119 22.4089 297.839 22.8182C297.562 23.2244 297.183 23.5445 296.703 23.7784C296.223 24.0123 295.677 24.1293 295.064 24.1293ZM299.847 22.0611V21.1193L304.002 14.5455H304.685V16.0043H304.224L301.085 20.9716V21.0455H306.68V22.0611H299.847ZM304.298 24V21.7749V21.3363V14.5455H305.387V24H304.298ZM308.35 24V16.9091H309.403V18.017H309.495C309.643 17.6385 309.881 17.3446 310.211 17.1353C310.54 16.9229 310.935 16.8168 311.397 16.8168C311.865 16.8168 312.254 16.9229 312.565 17.1353C312.879 17.3446 313.124 17.6385 313.299 18.017H313.373C313.554 17.6508 313.827 17.36 314.19 17.1445C314.553 16.926 314.989 16.8168 315.496 16.8168C316.13 16.8168 316.649 17.0153 317.052 17.4123C317.455 17.8062 317.657 18.4202 317.657 19.2543V24H316.568V19.2543C316.568 18.7311 316.424 18.3571 316.138 18.1325C315.852 17.9078 315.515 17.7955 315.127 17.7955C314.629 17.7955 314.242 17.9463 313.968 18.2479C313.695 18.5464 313.558 18.925 313.558 19.3835V24H312.45V19.1435C312.45 18.7403 312.319 18.4156 312.057 18.1694C311.796 17.9201 311.459 17.7955 311.046 17.7955C310.763 17.7955 310.498 17.8709 310.252 18.0217C310.009 18.1725 309.812 18.3817 309.661 18.6495C309.514 18.9142 309.44 19.2204 309.44 19.5682V24H308.35ZM325.236 24.1662C324.787 24.1662 324.379 24.0816 324.013 23.9123C323.646 23.7399 323.355 23.4922 323.14 23.169C322.925 22.8428 322.817 22.4489 322.817 21.9872C322.817 21.581 322.897 21.2517 323.057 20.9993C323.217 20.7438 323.431 20.5438 323.699 20.3991C323.966 20.2545 324.262 20.1468 324.585 20.076C324.911 20.0021 325.239 19.9437 325.568 19.9006C325.999 19.8452 326.348 19.8036 326.616 19.7759C326.887 19.7451 327.084 19.6944 327.207 19.6236C327.333 19.5528 327.396 19.4297 327.396 19.2543V19.2173C327.396 18.7618 327.272 18.4079 327.022 18.1555C326.776 17.9032 326.402 17.777 325.901 17.777C325.381 17.777 324.973 17.8909 324.677 18.1186C324.382 18.3464 324.174 18.5895 324.054 18.848L323.02 18.4787C323.205 18.0478 323.451 17.7124 323.759 17.4723C324.069 17.2292 324.408 17.0599 324.774 16.9645C325.144 16.866 325.507 16.8168 325.864 16.8168C326.091 16.8168 326.353 16.8445 326.649 16.8999C326.947 16.9522 327.235 17.0614 327.512 17.2276C327.792 17.3938 328.024 17.6446 328.209 17.9801C328.394 18.3156 328.486 18.7649 328.486 19.3281V24H327.396V23.0398H327.341C327.267 23.1937 327.144 23.3583 326.972 23.5337C326.799 23.7092 326.57 23.8584 326.284 23.9815C325.998 24.1046 325.648 24.1662 325.236 24.1662ZM325.402 23.1875C325.833 23.1875 326.196 23.1029 326.492 22.9336C326.79 22.7643 327.015 22.5458 327.166 22.2781C327.319 22.0103 327.396 21.7287 327.396 21.4332V20.4361C327.35 20.4915 327.249 20.5423 327.092 20.5884C326.938 20.6315 326.759 20.67 326.556 20.7038C326.356 20.7346 326.161 20.7623 325.97 20.7869C325.782 20.8085 325.63 20.8269 325.513 20.8423C325.23 20.8793 324.965 20.9393 324.719 21.0224C324.476 21.1024 324.279 21.224 324.128 21.3871C323.98 21.5471 323.906 21.7656 323.906 22.0426C323.906 22.4212 324.046 22.7074 324.326 22.9013C324.61 23.0921 324.968 23.1875 325.402 23.1875ZM333.259 26.8068C332.732 26.8068 332.28 26.7391 331.901 26.6037C331.523 26.4714 331.207 26.2959 330.955 26.0774C330.706 25.862 330.507 25.6312 330.36 25.3849L331.227 24.7756C331.326 24.9048 331.451 25.0526 331.601 25.2188C331.752 25.388 331.958 25.5342 332.22 25.6573C332.485 25.7835 332.831 25.8466 333.259 25.8466C333.831 25.8466 334.304 25.7081 334.676 25.4311C335.048 25.1541 335.235 24.7202 335.235 24.1293V22.6889H335.142C335.062 22.8182 334.948 22.9782 334.801 23.169C334.656 23.3568 334.447 23.5245 334.173 23.6722C333.902 23.8169 333.536 23.8892 333.074 23.8892C332.502 23.8892 331.988 23.7538 331.532 23.483C331.08 23.2121 330.721 22.8182 330.456 22.3011C330.195 21.7841 330.064 21.1562 330.064 20.4176C330.064 19.6913 330.192 19.0588 330.447 18.5202C330.703 17.9786 331.058 17.56 331.514 17.2646C331.969 16.966 332.495 16.8168 333.092 16.8168C333.554 16.8168 333.92 16.8937 334.191 17.0476C334.465 17.1984 334.674 17.3707 334.819 17.5646C334.967 17.7554 335.081 17.9124 335.161 18.0355H335.271V16.9091H336.324V24.2031C336.324 24.8125 336.186 25.308 335.909 25.6896C335.635 26.0743 335.265 26.3559 334.801 26.5344C334.339 26.716 333.825 26.8068 333.259 26.8068ZM333.222 22.9105C333.659 22.9105 334.028 22.8105 334.33 22.6104C334.631 22.4104 334.861 22.1226 335.018 21.7472C335.175 21.3717 335.253 20.9223 335.253 20.3991C335.253 19.8883 335.176 19.4374 335.022 19.0465C334.868 18.6557 334.641 18.3494 334.339 18.1278C334.037 17.9062 333.665 17.7955 333.222 17.7955C332.76 17.7955 332.375 17.9124 332.068 18.1463C331.763 18.3802 331.534 18.6941 331.38 19.0881C331.229 19.482 331.154 19.919 331.154 20.3991C331.154 20.8916 331.23 21.3271 331.384 21.7056C331.541 22.0811 331.772 22.3765 332.077 22.592C332.385 22.8043 332.766 22.9105 333.222 22.9105ZM341.121 24.1477C340.481 24.1477 339.919 23.9954 339.436 23.6907C338.956 23.386 338.58 22.9598 338.31 22.4119C338.042 21.8641 337.908 21.224 337.908 20.4915C337.908 19.7528 338.042 19.1081 338.31 18.5572C338.58 18.0063 338.956 17.5785 339.436 17.2738C339.919 16.9691 340.481 16.8168 341.121 16.8168C341.761 16.8168 342.321 16.9691 342.801 17.2738C343.285 17.5785 343.66 18.0063 343.928 18.5572C344.199 19.1081 344.334 19.7528 344.334 20.4915C344.334 21.224 344.199 21.8641 343.928 22.4119C343.66 22.9598 343.285 23.386 342.801 23.6907C342.321 23.9954 341.761 24.1477 341.121 24.1477ZM341.121 23.169C341.607 23.169 342.007 23.0444 342.321 22.7951C342.635 22.5458 342.868 22.218 343.018 21.8118C343.169 21.4055 343.245 20.9654 343.245 20.4915C343.245 20.0175 343.169 19.5759 343.018 19.1665C342.868 18.7572 342.635 18.4264 342.321 18.174C342.007 17.9216 341.607 17.7955 341.121 17.7955C340.635 17.7955 340.235 17.9216 339.921 18.174C339.607 18.4264 339.374 18.7572 339.224 19.1665C339.073 19.5759 338.997 20.0175 338.997 20.4915C338.997 20.9654 339.073 21.4055 339.224 21.8118C339.374 22.218 339.607 22.5458 339.921 22.7951C340.235 23.0444 340.635 23.169 341.121 23.169Z" fill="#EBEBF5" fill-opacity="0.6"/>
<path d="M58.3324 34.5455H59.6435L62.2656 38.9588H62.3764L64.9986 34.5455H66.3097L62.8935 40.1037V44H61.7486V40.1037L58.3324 34.5455ZM69.4424 44.1477C68.8023 44.1477 68.2406 43.9954 67.7574 43.6907C67.2773 43.386 66.9018 42.9598 66.631 42.4119C66.3632 41.8641 66.2294 41.224 66.2294 40.4915C66.2294 39.7528 66.3632 39.1081 66.631 38.5572C66.9018 38.0063 67.2773 37.5785 67.7574 37.2738C68.2406 36.9691 68.8023 36.8168 69.4424 36.8168C70.0826 36.8168 70.6427 36.9691 71.1228 37.2738C71.606 37.5785 71.9815 38.0063 72.2492 38.5572C72.5201 39.1081 72.6555 39.7528 72.6555 40.4915C72.6555 41.224 72.5201 41.8641 72.2492 42.4119C71.9815 42.9598 71.606 43.386 71.1228 43.6907C70.6427 43.9954 70.0826 44.1477 69.4424 44.1477ZM69.4424 43.169C69.9287 43.169 70.3288 43.0444 70.6427 42.7951C70.9566 42.5458 71.189 42.218 71.3398 41.8118C71.4906 41.4055 71.566 40.9654 71.566 40.4915C71.566 40.0175 71.4906 39.5759 71.3398 39.1665C71.189 38.7572 70.9566 38.4264 70.6427 38.174C70.3288 37.9216 69.9287 37.7955 69.4424 37.7955C68.9562 37.7955 68.5561 37.9216 68.2421 38.174C67.9282 38.4264 67.6959 38.7572 67.545 39.1665C67.3942 39.5759 67.3188 40.0175 67.3188 40.4915C67.3188 40.9654 67.3942 41.4055 67.545 41.8118C67.6959 42.218 67.9282 42.5458 68.2421 42.7951C68.5561 43.0444 68.9562 43.169 69.4424 43.169ZM78.7093 41.1009V36.9091H79.7988V44H78.7093V42.7997H78.6355C78.4693 43.1598 78.2107 43.466 77.8599 43.7184C77.509 43.9677 77.0659 44.0923 76.5303 44.0923C76.0872 44.0923 75.6932 43.9954 75.3485 43.8015C75.0038 43.6045 74.733 43.3091 74.536 42.9151C74.3391 42.5181 74.2406 42.018 74.2406 41.4148V36.9091H75.3301V41.3409C75.3301 41.858 75.4747 42.2704 75.764 42.5781C76.0564 42.8859 76.4288 43.0398 76.8812 43.0398C77.152 43.0398 77.4275 42.9705 77.7075 42.832C77.9907 42.6935 78.2277 42.4812 78.4185 42.195C78.6124 41.9087 78.7093 41.544 78.7093 41.1009ZM86.384 39.7344V44H85.2945V34.5455H86.384V38.017H86.4764C86.6425 37.6508 86.8918 37.36 87.2242 37.1445C87.5597 36.926 88.0059 36.8168 88.563 36.8168C89.0462 36.8168 89.4694 36.9137 89.8325 37.1076C90.1957 37.2984 90.4773 37.5923 90.6773 37.9893C90.8805 38.3833 90.982 38.8849 90.982 39.4943V44H89.8925V39.5682C89.8925 39.005 89.7464 38.5695 89.454 38.2617C89.1647 37.9509 88.763 37.7955 88.2491 37.7955C87.8921 37.7955 87.572 37.8709 87.2889 38.0217C87.0088 38.1725 86.7872 38.3925 86.6241 38.6818C86.464 38.9711 86.384 39.322 86.384 39.7344ZM94.9838 44.1662C94.5345 44.1662 94.1267 44.0816 93.7605 43.9123C93.3942 43.7399 93.1034 43.4922 92.888 43.169C92.6725 42.8428 92.5648 42.4489 92.5648 41.9872C92.5648 41.581 92.6448 41.2517 92.8049 40.9993C92.9649 40.7438 93.1788 40.5438 93.4466 40.3991C93.7143 40.2545 94.0098 40.1468 94.3329 40.076C94.6592 40.0021 94.9869 39.9437 95.3162 39.9006C95.7471 39.8452 96.0964 39.8036 96.3642 39.7759C96.635 39.7451 96.832 39.6944 96.9551 39.6236C97.0813 39.5528 97.1444 39.4297 97.1444 39.2543V39.2173C97.1444 38.7618 97.0197 38.4079 96.7704 38.1555C96.5242 37.9032 96.1503 37.777 95.6486 37.777C95.1285 37.777 94.7207 37.8909 94.4253 38.1186C94.1298 38.3464 93.9221 38.5895 93.802 38.848L92.7679 38.4787C92.9526 38.0478 93.1988 37.7124 93.5066 37.4723C93.8174 37.2292 94.156 37.0599 94.5222 36.9645C94.8915 36.866 95.2547 36.8168 95.6117 36.8168C95.8394 36.8168 96.101 36.8445 96.3965 36.8999C96.695 36.9522 96.9828 37.0614 97.2598 37.2276C97.5398 37.3938 97.7722 37.6446 97.9569 37.9801C98.1415 38.3156 98.2338 38.7649 98.2338 39.3281V44H97.1444V43.0398H97.089C97.0151 43.1937 96.892 43.3583 96.7196 43.5337C96.5473 43.7092 96.318 43.8584 96.0318 43.9815C95.7456 44.1046 95.3963 44.1662 94.9838 44.1662ZM95.15 43.1875C95.5809 43.1875 95.9441 43.1029 96.2395 42.9336C96.5381 42.7643 96.7627 42.5458 96.9135 42.2781C97.0674 42.0103 97.1444 41.7287 97.1444 41.4332V40.4361C97.0982 40.4915 96.9966 40.5423 96.8397 40.5884C96.6858 40.6315 96.5073 40.67 96.3042 40.7038C96.1041 40.7346 95.9087 40.7623 95.7179 40.7869C95.5301 40.8085 95.3778 40.8269 95.2608 40.8423C94.9777 40.8793 94.713 40.9393 94.4668 41.0224C94.2237 41.1024 94.0267 41.224 93.8759 41.3871C93.7282 41.5471 93.6543 41.7656 93.6543 42.0426C93.6543 42.4212 93.7943 42.7074 94.0744 42.9013C94.3575 43.0921 94.7161 43.1875 95.15 43.1875ZM105.689 36.9091L103.067 44H101.959L99.3365 36.9091H100.518L102.476 42.5597H102.55L104.507 36.9091H105.689ZM109.768 44.1477C109.085 44.1477 108.495 43.9969 108 43.6953C107.507 43.3906 107.127 42.9659 106.86 42.4212C106.595 41.8733 106.463 41.2363 106.463 40.5099C106.463 39.7836 106.595 39.1435 106.86 38.5895C107.127 38.0324 107.5 37.5985 107.977 37.2876C108.457 36.9737 109.017 36.8168 109.657 36.8168C110.026 36.8168 110.391 36.8783 110.751 37.0014C111.111 37.1245 111.439 37.3246 111.735 37.6016C112.03 37.8755 112.265 38.2386 112.441 38.6911C112.616 39.1435 112.704 39.7005 112.704 40.3622V40.8239H107.238V39.8821H111.596C111.596 39.482 111.516 39.125 111.356 38.8111C111.199 38.4972 110.974 38.2494 110.682 38.0678C110.393 37.8862 110.051 37.7955 109.657 37.7955C109.223 37.7955 108.848 37.9032 108.531 38.1186C108.217 38.331 107.975 38.608 107.806 38.9496C107.637 39.2912 107.552 39.6574 107.552 40.0483V40.6761C107.552 41.2116 107.644 41.6656 107.829 42.038C108.017 42.4073 108.277 42.6889 108.609 42.8828C108.942 43.0736 109.328 43.169 109.768 43.169C110.054 43.169 110.313 43.129 110.543 43.049C110.777 42.9659 110.979 42.8428 111.148 42.6797C111.318 42.5135 111.448 42.3073 111.541 42.0611L112.593 42.3565C112.482 42.7135 112.296 43.0275 112.035 43.2983C111.773 43.5661 111.45 43.7753 111.065 43.9261C110.68 44.0739 110.248 44.1477 109.768 44.1477ZM119.948 44.1662C119.499 44.1662 119.091 44.0816 118.725 43.9123C118.359 43.7399 118.068 43.4922 117.852 43.169C117.637 42.8428 117.529 42.4489 117.529 41.9872C117.529 41.581 117.609 41.2517 117.769 40.9993C117.929 40.7438 118.143 40.5438 118.411 40.3991C118.679 40.2545 118.974 40.1468 119.297 40.076C119.624 40.0021 119.951 39.9437 120.281 39.9006C120.711 39.8452 121.061 39.8036 121.329 39.7759C121.599 39.7451 121.796 39.6944 121.919 39.6236C122.046 39.5528 122.109 39.4297 122.109 39.2543V39.2173C122.109 38.7618 121.984 38.4079 121.735 38.1555C121.489 37.9032 121.115 37.777 120.613 37.777C120.093 37.777 119.685 37.8909 119.39 38.1186C119.094 38.3464 118.886 38.5895 118.766 38.848L117.732 38.4787C117.917 38.0478 118.163 37.7124 118.471 37.4723C118.782 37.2292 119.12 37.0599 119.487 36.9645C119.856 36.866 120.219 36.8168 120.576 36.8168C120.804 36.8168 121.065 36.8445 121.361 36.8999C121.659 36.9522 121.947 37.0614 122.224 37.2276C122.504 37.3938 122.737 37.6446 122.921 37.9801C123.106 38.3156 123.198 38.7649 123.198 39.3281V44H122.109V43.0398H122.053C121.979 43.1937 121.856 43.3583 121.684 43.5337C121.512 43.7092 121.282 43.8584 120.996 43.9815C120.71 44.1046 120.361 44.1662 119.948 44.1662ZM120.114 43.1875C120.545 43.1875 120.908 43.1029 121.204 42.9336C121.502 42.7643 121.727 42.5458 121.878 42.2781C122.032 42.0103 122.109 41.7287 122.109 41.4332V40.4361C122.063 40.4915 121.961 40.5423 121.804 40.5884C121.65 40.6315 121.472 40.67 121.269 40.7038C121.068 40.7346 120.873 40.7623 120.682 40.7869C120.494 40.8085 120.342 40.8269 120.225 40.8423C119.942 40.8793 119.677 40.9393 119.431 41.0224C119.188 41.1024 118.991 41.224 118.84 41.3871C118.693 41.5471 118.619 41.7656 118.619 42.0426C118.619 42.4212 118.759 42.7074 119.039 42.9013C119.322 43.0921 119.68 43.1875 120.114 43.1875ZM126.198 39.7344V44H125.109V36.9091H126.161V38.017H126.254C126.42 37.657 126.672 37.3677 127.011 37.1491C127.349 36.9276 127.786 36.8168 128.322 36.8168C128.802 36.8168 129.222 36.9152 129.582 37.1122C129.942 37.3061 130.222 37.6016 130.422 37.9986C130.622 38.3925 130.722 38.8911 130.722 39.4943V44H129.633V39.5682C129.633 39.0111 129.488 38.5772 129.199 38.2663C128.91 37.9524 128.513 37.7955 128.008 37.7955C127.66 37.7955 127.349 37.8709 127.075 38.0217C126.805 38.1725 126.591 38.3925 126.434 38.6818C126.277 38.9711 126.198 39.322 126.198 39.7344ZM140.682 41.1009V36.9091H141.772V44H140.682V42.7997H140.608C140.442 43.1598 140.184 43.466 139.833 43.7184C139.482 43.9677 139.039 44.0923 138.503 44.0923C138.06 44.0923 137.666 43.9954 137.321 43.8015C136.977 43.6045 136.706 43.3091 136.509 42.9151C136.312 42.5181 136.214 42.018 136.214 41.4148V36.9091H137.303V41.3409C137.303 41.858 137.448 42.2704 137.737 42.5781C138.029 42.8859 138.402 43.0398 138.854 43.0398C139.125 43.0398 139.4 42.9705 139.68 42.832C139.964 42.6935 140.201 42.4812 140.391 42.195C140.585 41.9087 140.682 41.544 140.682 41.1009ZM143.689 46.6591V36.9091H144.742V38.0355H144.871C144.951 37.9124 145.062 37.7554 145.203 37.5646C145.348 37.3707 145.554 37.1984 145.822 37.0476C146.093 36.8937 146.459 36.8168 146.921 36.8168C147.518 36.8168 148.044 36.966 148.5 37.2646C148.955 37.5631 149.311 37.9863 149.566 38.5341C149.821 39.0819 149.949 39.7282 149.949 40.473C149.949 41.224 149.821 41.8749 149.566 42.4258C149.311 42.9736 148.957 43.3983 148.504 43.6999C148.052 43.9985 147.53 44.1477 146.939 44.1477C146.484 44.1477 146.119 44.0723 145.845 43.9215C145.571 43.7676 145.36 43.5937 145.213 43.3999C145.065 43.2029 144.951 43.0398 144.871 42.9105H144.779V46.6591H143.689ZM144.76 40.4545C144.76 40.9901 144.839 41.4625 144.996 41.8718C145.153 42.2781 145.382 42.5966 145.684 42.8274C145.985 43.0552 146.354 43.169 146.791 43.169C147.247 43.169 147.627 43.049 147.932 42.8089C148.24 42.5658 148.47 42.2396 148.624 41.8303C148.781 41.4179 148.86 40.9593 148.86 40.4545C148.86 39.956 148.783 39.5066 148.629 39.1065C148.478 38.7034 148.249 38.3848 147.941 38.1509C147.636 37.9139 147.253 37.7955 146.791 37.7955C146.348 37.7955 145.976 37.9078 145.674 38.1325C145.373 38.354 145.145 38.6649 144.991 39.065C144.837 39.462 144.76 39.9252 144.76 40.4545ZM154.414 44.1477C153.749 44.1477 153.177 43.9908 152.696 43.6768C152.216 43.3629 151.847 42.9305 151.588 42.3796C151.33 41.8287 151.201 41.1993 151.201 40.4915C151.201 39.7713 151.333 39.1358 151.598 38.5849C151.865 38.0309 152.238 37.5985 152.715 37.2876C153.195 36.9737 153.755 36.8168 154.395 36.8168C154.894 36.8168 155.343 36.9091 155.743 37.0938C156.143 37.2784 156.471 37.5369 156.727 37.8693C156.982 38.2017 157.141 38.5895 157.202 39.0327H156.113C156.03 38.7095 155.845 38.4233 155.559 38.174C155.276 37.9216 154.894 37.7955 154.414 37.7955C153.989 37.7955 153.617 37.9062 153.297 38.1278C152.98 38.3464 152.732 38.6557 152.553 39.0558C152.378 39.4528 152.29 39.919 152.29 40.4545C152.29 41.0024 152.376 41.4794 152.549 41.8857C152.724 42.2919 152.97 42.6074 153.287 42.832C153.607 43.0567 153.983 43.169 154.414 43.169C154.697 43.169 154.954 43.1198 155.185 43.0213C155.416 42.9228 155.611 42.7812 155.771 42.5966C155.931 42.4119 156.045 42.1903 156.113 41.9318H157.202C157.141 42.3504 156.988 42.7274 156.745 43.0629C156.505 43.3952 156.186 43.6599 155.789 43.8569C155.396 44.0508 154.937 44.1477 154.414 44.1477ZM161.597 44.1477C160.957 44.1477 160.396 43.9954 159.912 43.6907C159.432 43.386 159.057 42.9598 158.786 42.4119C158.518 41.8641 158.384 41.224 158.384 40.4915C158.384 39.7528 158.518 39.1081 158.786 38.5572C159.057 38.0063 159.432 37.5785 159.912 37.2738C160.396 36.9691 160.957 36.8168 161.597 36.8168C162.238 36.8168 162.798 36.9691 163.278 37.2738C163.761 37.5785 164.137 38.0063 164.404 38.5572C164.675 39.1081 164.811 39.7528 164.811 40.4915C164.811 41.224 164.675 41.8641 164.404 42.4119C164.137 42.9598 163.761 43.386 163.278 43.6907C162.798 43.9954 162.238 44.1477 161.597 44.1477ZM161.597 43.169C162.084 43.169 162.484 43.0444 162.798 42.7951C163.112 42.5458 163.344 42.218 163.495 41.8118C163.646 41.4055 163.721 40.9654 163.721 40.4915C163.721 40.0175 163.646 39.5759 163.495 39.1665C163.344 38.7572 163.112 38.4264 162.798 38.174C162.484 37.9216 162.084 37.7955 161.597 37.7955C161.111 37.7955 160.711 37.9216 160.397 38.174C160.083 38.4264 159.851 38.7572 159.7 39.1665C159.549 39.5759 159.474 40.0175 159.474 40.4915C159.474 40.9654 159.549 41.4055 159.7 41.8118C159.851 42.218 160.083 42.5458 160.397 42.7951C160.711 43.0444 161.111 43.169 161.597 43.169ZM166.396 44V36.9091H167.448V38.017H167.541C167.688 37.6385 167.927 37.3446 168.256 37.1353C168.585 36.9229 168.981 36.8168 169.443 36.8168C169.91 36.8168 170.3 36.9229 170.61 37.1353C170.924 37.3446 171.169 37.6385 171.345 38.017H171.418C171.6 37.6508 171.872 37.36 172.235 37.1445C172.599 36.926 173.034 36.8168 173.542 36.8168C174.176 36.8168 174.695 37.0153 175.098 37.4123C175.501 37.8062 175.702 38.4202 175.702 39.2543V44H174.613V39.2543C174.613 38.7311 174.47 38.3571 174.184 38.1325C173.897 37.9078 173.56 37.7955 173.173 37.7955C172.674 37.7955 172.288 37.9463 172.014 38.2479C171.74 38.5464 171.603 38.925 171.603 39.3835V44H170.495V39.1435C170.495 38.7403 170.364 38.4156 170.103 38.1694C169.841 37.9201 169.504 37.7955 169.092 37.7955C168.809 37.7955 168.544 37.8709 168.298 38.0217C168.054 38.1725 167.858 38.3817 167.707 38.6495C167.559 38.9142 167.485 39.2204 167.485 39.5682V44H166.396ZM177.616 44V36.9091H178.706V44H177.616ZM178.17 35.7273C177.958 35.7273 177.775 35.6549 177.621 35.5103C177.47 35.3656 177.395 35.1918 177.395 34.9886C177.395 34.7855 177.47 34.6116 177.621 34.467C177.775 34.3223 177.958 34.25 178.17 34.25C178.383 34.25 178.564 34.3223 178.715 34.467C178.869 34.6116 178.946 34.7855 178.946 34.9886C178.946 35.1918 178.869 35.3656 178.715 35.5103C178.564 35.6549 178.383 35.7273 178.17 35.7273ZM181.713 39.7344V44H180.623V36.9091H181.676V38.017H181.768C181.935 37.657 182.187 37.3677 182.525 37.1491C182.864 36.9276 183.301 36.8168 183.837 36.8168C184.317 36.8168 184.737 36.9152 185.097 37.1122C185.457 37.3061 185.737 37.6016 185.937 37.9986C186.137 38.3925 186.237 38.8911 186.237 39.4943V44H185.148V39.5682C185.148 39.0111 185.003 38.5772 184.714 38.2663C184.424 37.9524 184.027 37.7955 183.523 37.7955C183.175 37.7955 182.864 37.8709 182.59 38.0217C182.319 38.1725 182.105 38.3925 181.948 38.6818C181.791 38.9711 181.713 39.322 181.713 39.7344ZM191.012 46.8068C190.486 46.8068 190.033 46.7391 189.655 46.6037C189.276 46.4714 188.961 46.2959 188.709 46.0774C188.459 45.862 188.261 45.6312 188.113 45.3849L188.981 44.7756C189.079 44.9048 189.204 45.0526 189.355 45.2188C189.506 45.388 189.712 45.5342 189.973 45.6573C190.238 45.7835 190.584 45.8466 191.012 45.8466C191.585 45.8466 192.057 45.7081 192.429 45.4311C192.802 45.1541 192.988 44.7202 192.988 44.1293V42.6889H192.896C192.816 42.8182 192.702 42.9782 192.554 43.169C192.409 43.3568 192.2 43.5245 191.926 43.6722C191.655 43.8169 191.289 43.8892 190.827 43.8892C190.255 43.8892 189.741 43.7538 189.286 43.483C188.833 43.2121 188.475 42.8182 188.21 42.3011C187.948 41.7841 187.818 41.1562 187.818 40.4176C187.818 39.6913 187.945 39.0588 188.201 38.5202C188.456 37.9786 188.812 37.56 189.267 37.2646C189.723 36.966 190.249 36.8168 190.846 36.8168C191.308 36.8168 191.674 36.8937 191.945 37.0476C192.219 37.1984 192.428 37.3707 192.573 37.5646C192.72 37.7554 192.834 37.9124 192.914 38.0355H193.025V36.9091H194.077V44.2031C194.077 44.8125 193.939 45.308 193.662 45.6896C193.388 46.0743 193.019 46.3559 192.554 46.5344C192.092 46.716 191.578 46.8068 191.012 46.8068ZM190.975 42.9105C191.412 42.9105 191.782 42.8105 192.083 42.6104C192.385 42.4104 192.614 42.1226 192.771 41.7472C192.928 41.3717 193.006 40.9223 193.006 40.3991C193.006 39.8883 192.93 39.4374 192.776 39.0465C192.622 38.6557 192.394 38.3494 192.092 38.1278C191.791 37.9062 191.418 37.7955 190.975 37.7955C190.514 37.7955 190.129 37.9124 189.821 38.1463C189.516 38.3802 189.287 38.6941 189.133 39.0881C188.982 39.482 188.907 39.919 188.907 40.3991C188.907 40.8916 188.984 41.3271 189.138 41.7056C189.295 42.0811 189.526 42.3765 189.83 42.592C190.138 42.8043 190.52 42.9105 190.975 42.9105ZM199.72 44V34.5455H200.809V38.0355H200.902C200.982 37.9124 201.092 37.7554 201.234 37.5646C201.379 37.3707 201.585 37.1984 201.853 37.0476C202.123 36.8937 202.49 36.8168 202.951 36.8168C203.548 36.8168 204.075 36.966 204.53 37.2646C204.986 37.5631 205.341 37.9863 205.597 38.5341C205.852 39.0819 205.98 39.7282 205.98 40.473C205.98 41.224 205.852 41.8749 205.597 42.4258C205.341 42.9736 204.987 43.3983 204.535 43.6999C204.082 43.9985 203.561 44.1477 202.97 44.1477C202.514 44.1477 202.15 44.0723 201.876 43.9215C201.602 43.7676 201.391 43.5937 201.243 43.3999C201.095 43.2029 200.982 43.0398 200.902 42.9105H200.772V44H199.72ZM200.791 40.4545C200.791 40.9901 200.869 41.4625 201.026 41.8718C201.183 42.2781 201.412 42.5966 201.714 42.8274C202.016 43.0552 202.385 43.169 202.822 43.169C203.278 43.169 203.658 43.049 203.962 42.8089C204.27 42.5658 204.501 42.2396 204.655 41.8303C204.812 41.4179 204.89 40.9593 204.89 40.4545C204.89 39.956 204.813 39.5066 204.659 39.1065C204.509 38.7034 204.279 38.3848 203.972 38.1509C203.667 37.9139 203.284 37.7955 202.822 37.7955C202.379 37.7955 202.006 37.9078 201.705 38.1325C201.403 38.354 201.176 38.6649 201.022 39.065C200.868 39.462 200.791 39.9252 200.791 40.4545ZM210.449 44.1477C209.809 44.1477 209.247 43.9954 208.764 43.6907C208.284 43.386 207.908 42.9598 207.638 42.4119C207.37 41.8641 207.236 41.224 207.236 40.4915C207.236 39.7528 207.37 39.1081 207.638 38.5572C207.908 38.0063 208.284 37.5785 208.764 37.2738C209.247 36.9691 209.809 36.8168 210.449 36.8168C211.089 36.8168 211.649 36.9691 212.129 37.2738C212.613 37.5785 212.988 38.0063 213.256 38.5572C213.527 39.1081 213.662 39.7528 213.662 40.4915C213.662 41.224 213.527 41.8641 213.256 42.4119C212.988 42.9598 212.613 43.386 212.129 43.6907C211.649 43.9954 211.089 44.1477 210.449 44.1477ZM210.449 43.169C210.935 43.169 211.335 43.0444 211.649 42.7951C211.963 42.5458 212.196 42.218 212.346 41.8118C212.497 41.4055 212.573 40.9654 212.573 40.4915C212.573 40.0175 212.497 39.5759 212.346 39.1665C212.196 38.7572 211.963 38.4264 211.649 38.174C211.335 37.9216 210.935 37.7955 210.449 37.7955C209.963 37.7955 209.563 37.9216 209.249 38.174C208.935 38.4264 208.702 38.7572 208.552 39.1665C208.401 39.5759 208.325 40.0175 208.325 40.4915C208.325 40.9654 208.401 41.4055 208.552 41.8118C208.702 42.218 208.935 42.5458 209.249 42.7951C209.563 43.0444 209.963 43.169 210.449 43.169ZM218.128 44.1477C217.488 44.1477 216.926 43.9954 216.443 43.6907C215.963 43.386 215.587 42.9598 215.316 42.4119C215.049 41.8641 214.915 41.224 214.915 40.4915C214.915 39.7528 215.049 39.1081 215.316 38.5572C215.587 38.0063 215.963 37.5785 216.443 37.2738C216.926 36.9691 217.488 36.8168 218.128 36.8168C218.768 36.8168 219.328 36.9691 219.808 37.2738C220.291 37.5785 220.667 38.0063 220.935 38.5572C221.205 39.1081 221.341 39.7528 221.341 40.4915C221.341 41.224 221.205 41.8641 220.935 42.4119C220.667 42.9598 220.291 43.386 219.808 43.6907C219.328 43.9954 218.768 44.1477 218.128 44.1477ZM218.128 43.169C218.614 43.169 219.014 43.0444 219.328 42.7951C219.642 42.5458 219.874 42.218 220.025 41.8118C220.176 41.4055 220.251 40.9654 220.251 40.4915C220.251 40.0175 220.176 39.5759 220.025 39.1665C219.874 38.7572 219.642 38.4264 219.328 38.174C219.014 37.9216 218.614 37.7955 218.128 37.7955C217.642 37.7955 217.241 37.9216 216.927 38.174C216.614 38.4264 216.381 38.7572 216.23 39.1665C216.08 39.5759 216.004 40.0175 216.004 40.4915C216.004 40.9654 216.08 41.4055 216.23 41.8118C216.381 42.218 216.614 42.5458 216.927 42.7951C217.241 43.0444 217.642 43.169 218.128 43.169ZM223.942 41.4148L223.923 40.0668H224.145L227.247 36.9091H228.595L225.29 40.2514H225.197L223.942 41.4148ZM222.926 44V34.5455H224.015V44H222.926ZM227.432 44L224.662 40.4915L225.437 39.7344L228.817 44H227.432ZM229.919 44V36.9091H231.009V44H229.919ZM230.473 35.7273C230.261 35.7273 230.078 35.6549 229.924 35.5103C229.773 35.3656 229.698 35.1918 229.698 34.9886C229.698 34.7855 229.773 34.6116 229.924 34.467C230.078 34.3223 230.261 34.25 230.473 34.25C230.686 34.25 230.867 34.3223 231.018 34.467C231.172 34.6116 231.249 34.7855 231.249 34.9886C231.249 35.1918 231.172 35.3656 231.018 35.5103C230.867 35.6549 230.686 35.7273 230.473 35.7273ZM234.016 39.7344V44H232.926V36.9091H233.979V38.017H234.071C234.237 37.657 234.49 37.3677 234.828 37.1491C235.167 36.9276 235.604 36.8168 236.139 36.8168C236.619 36.8168 237.039 36.9152 237.4 37.1122C237.76 37.3061 238.04 37.6016 238.24 37.9986C238.44 38.3925 238.54 38.8911 238.54 39.4943V44H237.45V39.5682C237.45 39.0111 237.306 38.5772 237.016 38.2663C236.727 37.9524 236.33 37.7955 235.825 37.7955C235.478 37.7955 235.167 37.8709 234.893 38.0217C234.622 38.1725 234.408 38.3925 234.251 38.6818C234.094 38.9711 234.016 39.322 234.016 39.7344ZM243.315 46.8068C242.789 46.8068 242.336 46.7391 241.958 46.6037C241.579 46.4714 241.264 46.2959 241.011 46.0774C240.762 45.862 240.563 45.6312 240.416 45.3849L241.284 44.7756C241.382 44.9048 241.507 45.0526 241.658 45.2188C241.808 45.388 242.015 45.5342 242.276 45.6573C242.541 45.7835 242.887 45.8466 243.315 45.8466C243.887 45.8466 244.36 45.7081 244.732 45.4311C245.105 45.1541 245.291 44.7202 245.291 44.1293V42.6889H245.198C245.118 42.8182 245.005 42.9782 244.857 43.169C244.712 43.3568 244.503 43.5245 244.229 43.6722C243.958 43.8169 243.592 43.8892 243.13 43.8892C242.558 43.8892 242.044 43.7538 241.588 43.483C241.136 43.2121 240.777 42.8182 240.513 42.3011C240.251 41.7841 240.12 41.1562 240.12 40.4176C240.12 39.6913 240.248 39.0588 240.503 38.5202C240.759 37.9786 241.114 37.56 241.57 37.2646C242.025 36.966 242.552 36.8168 243.149 36.8168C243.61 36.8168 243.977 36.8937 244.247 37.0476C244.521 37.1984 244.731 37.3707 244.875 37.5646C245.023 37.7554 245.137 37.9124 245.217 38.0355H245.328V36.9091H246.38V44.2031C246.38 44.8125 246.242 45.308 245.965 45.6896C245.691 46.0743 245.322 46.3559 244.857 46.5344C244.395 46.716 243.881 46.8068 243.315 46.8068ZM243.278 42.9105C243.715 42.9105 244.084 42.8105 244.386 42.6104C244.688 42.4104 244.917 42.1226 245.074 41.7472C245.231 41.3717 245.309 40.9223 245.309 40.3991C245.309 39.8883 245.232 39.4374 245.078 39.0465C244.925 38.6557 244.697 38.3494 244.395 38.1278C244.094 37.9062 243.721 37.7955 243.278 37.7955C242.816 37.7955 242.432 37.9124 242.124 38.1463C241.819 38.3802 241.59 38.6941 241.436 39.0881C241.285 39.482 241.21 39.919 241.21 40.3991C241.21 40.8916 241.287 41.3271 241.441 41.7056C241.598 42.0811 241.828 42.3765 242.133 42.592C242.441 42.8043 242.822 42.9105 243.278 42.9105Z" fill="white"/>
</g>
</g>
<defs>
<filter id="filter0_b_832_122" x="-80" y="-80" width="515" height="218" filterUnits="userSpaceOnUse" color-interpolation-filters="sRGB">
<feFlood flood-opacity="0" result="BackgroundImageFix"/>
<feGaussianBlur in="BackgroundImageFix" stdDeviation="40"/>
<feComposite in2="SourceAlpha" operator="in" result="effect1_backgroundBlur_832_122"/>
<feBlend mode="normal" in="SourceGraphic" in2="effect1_backgroundBlur_832_122" result="shape"/>
</filter>
<linearGradient id="paint0_linear_832_122" x1="29" y1="10" x2="29" y2="48" gradientUnits="userSpaceOnUse">
<stop stop-color="#2D2D2D"/>
<stop offset="1" stop-color="#181818"/>
</linearGradient>
<clipPath id="clip0_832_122">
<rect width="287" height="38" fill="white" transform="translate(58 10)"/>
</clipPath>
</defs>
</svg>
