<svg width="382" height="381" viewBox="0 0 382 381" fill="none" xmlns="http://www.w3.org/2000/svg">
<g opacity="0.03">
<path d="M223.76 33.2516C223.76 14.8871 208.873 0 190.508 0C172.144 0 157.257 14.8871 157.257 33.2516C157.257 48.9591 168.151 62.113 182.793 65.5933L190.508 79.481L198.223 65.5933C212.865 62.113 223.76 48.9581 223.76 33.2516Z" fill="#294DA5"/>
<path d="M194.172 34.3383H188.456V52.2857H179.982V34.3383H175.952V27.1367H179.982V22.477C179.982 19.1452 181.565 13.9268 188.531 13.9268L194.808 13.9533V20.9434H190.253C189.506 20.9434 188.456 21.3172 188.456 22.9059V27.1446H194.912L194.172 34.3383Z" fill="white"/>
<path d="M299.404 70.8971C308.386 54.8729 302.677 34.601 286.653 25.62C270.629 16.6379 250.357 22.3472 241.376 38.3715C233.693 52.0772 236.766 68.8835 247.839 79.0814L247.779 94.9739L261.304 86.6293C275.783 90.7529 291.722 84.6029 299.404 70.8971Z" fill="#00AFF0"/>
<path d="M289.269 43.5356C287.88 44.1514 286.386 44.5685 284.82 44.7544C286.42 43.7953 287.647 42.2784 288.227 40.4694C286.73 41.3577 285.071 42.002 283.307 42.3493C281.894 40.8442 279.881 39.9038 277.652 39.9038C273.375 39.9038 269.906 43.3733 269.906 47.6503C269.906 48.2573 269.974 48.8485 270.107 49.4161C263.669 49.0934 257.961 46.0096 254.14 41.3213C253.473 42.4653 253.09 43.7963 253.09 45.2167C253.09 47.9032 254.459 50.2758 256.536 51.6648C255.267 51.6244 254.072 51.2762 253.028 50.6949C253.027 50.7273 253.027 50.7608 253.027 50.7932C253.027 54.547 255.699 57.6771 259.242 58.3883C258.593 58.5663 257.907 58.6608 257.202 58.6608C256.702 58.6608 256.218 58.6126 255.744 58.5221C256.73 61.599 259.591 63.8389 262.981 63.9009C260.329 65.9794 256.99 67.2169 253.36 67.2169C252.735 67.2169 252.117 67.1805 251.514 67.1087C254.94 69.3072 259.013 70.5899 263.387 70.5899C277.635 70.5899 285.428 58.7867 285.428 48.5485C285.428 48.213 285.42 47.8786 285.405 47.5471C286.918 46.4532 288.232 45.0898 289.269 43.5356Z" fill="white"/>
<path d="M344.796 238.825C360.356 248.59 365.053 269.119 355.289 284.678C345.524 300.238 324.995 304.935 309.435 295.171C296.127 286.82 290.774 270.595 295.61 256.338L287.945 242.417L303.815 243.265C314.55 232.709 331.487 230.473 344.796 238.825Z" fill="#00C169"/>
<path fill-rule="evenodd" clip-rule="evenodd" d="M337.982 271.192C337.453 270.902 334.855 269.501 334.37 269.303C333.883 269.104 333.526 269.002 333.147 269.527C332.769 270.051 331.69 271.225 331.365 271.572C331.037 271.921 330.722 271.953 330.192 271.663C329.666 271.374 327.951 270.739 325.964 268.829C324.417 267.342 323.402 265.539 323.109 264.989C322.813 264.439 323.107 264.158 323.387 263.901C323.638 263.667 323.949 263.291 324.231 262.987C324.51 262.684 324.608 262.461 324.801 262.109C324.994 261.757 324.916 261.439 324.791 261.165C324.667 260.89 323.69 258.201 323.282 257.106C322.874 256.012 322.419 256.175 322.105 256.162C321.791 256.151 321.434 256.093 321.075 256.078C320.715 256.065 320.127 256.178 319.614 256.698C319.1 257.217 317.66 258.468 317.561 261.118C317.462 263.766 319.294 266.398 319.55 266.766C319.806 267.136 323.049 272.878 328.44 275.239C333.833 277.6 333.862 276.88 334.851 276.827C335.841 276.775 338.085 275.643 338.581 274.403C339.076 273.164 339.117 272.086 338.991 271.857C338.864 271.629 338.51 271.481 337.982 271.192ZM328.093 283.956C324.529 283.956 321.207 282.887 318.436 281.052L311.689 283.212L313.881 276.692C311.779 273.798 310.539 270.242 310.539 266.399C310.539 256.718 318.414 248.842 328.093 248.842C337.774 248.842 345.649 256.718 345.649 266.399C345.649 276.08 337.775 283.956 328.093 283.956ZM328.093 245.31C316.447 245.31 307.004 254.751 307.004 266.399C307.004 270.384 308.111 274.109 310.031 277.289L306.224 288.603L317.9 284.866C320.922 286.536 324.396 287.489 328.093 287.489C339.742 287.489 349.184 278.047 349.184 266.4C349.184 254.752 339.742 245.31 328.093 245.31Z" fill="white"/>
<path d="M345.287 142.066C360.847 132.301 365.545 111.772 355.78 96.2124C346.015 80.6524 325.487 75.9553 309.927 85.7194C296.619 94.0709 291.266 110.296 296.102 124.552L288.437 138.474L304.307 137.626C315.042 148.183 331.979 150.419 345.287 142.066Z" fill="#EA4C89"/>
<path d="M328.688 90.377C316.248 90.377 306.129 100.485 306.129 112.908C306.129 125.331 316.249 135.439 328.688 135.439C341.126 135.439 351.248 125.332 351.248 112.908C351.248 100.485 341.126 90.377 328.688 90.377ZM343.532 101.012C346.106 104.201 347.669 108.229 347.742 112.618C346.885 112.442 343.259 111.766 338.925 111.766C337.527 111.766 336.056 111.836 334.58 112.018C334.455 111.715 334.331 111.413 334.2 111.109C333.818 110.209 333.406 109.316 332.979 108.436C339.647 105.688 342.865 101.874 343.532 101.012ZM328.688 93.9045C333.494 93.9045 337.888 95.6898 341.245 98.6321C340.713 99.357 337.831 102.958 331.401 105.388C328.424 99.9472 325.165 95.441 324.39 94.3953C325.772 94.0746 327.21 93.9045 328.688 93.9045ZM320.501 95.7518C321.158 96.6568 324.421 101.21 327.475 106.609C319.28 108.763 312.004 108.904 310.248 108.904H310.061C311.322 103.088 315.251 98.2563 320.501 95.7518ZM309.629 112.938C309.629 112.781 309.632 112.624 309.636 112.468C309.75 112.47 309.918 112.47 310.136 112.47C312.501 112.47 320.711 112.274 329.172 109.763C329.685 110.768 330.174 111.787 330.629 112.806C330.415 112.867 330.205 112.929 329.995 112.997C320.469 116.074 315.234 124.219 314.427 125.55C311.443 122.186 309.629 117.772 309.629 112.938ZM328.688 131.971C324.316 131.971 320.282 130.491 317.063 128.008C317.608 126.941 321.56 119.825 331.999 116.192C332.006 116.189 332.013 116.187 332.02 116.185C334.637 123 335.746 128.719 336.05 130.493C333.785 131.445 331.296 131.971 328.688 131.971ZM339.483 128.616C339.227 127.149 338.2 121.788 335.83 115.251C337.159 115.045 338.453 114.963 339.667 114.963C343.65 114.963 346.766 115.835 347.49 116.056C346.628 121.248 343.656 125.741 339.483 128.616Z" fill="white"/>
<path d="M347.764 223.697C366.129 223.697 381.016 208.81 381.016 190.446C381.016 172.081 366.129 157.194 347.764 157.194C332.057 157.194 318.903 168.088 315.423 182.731L301.534 190.446L315.422 198.161C318.903 212.803 332.057 223.697 347.764 223.697Z" fill="#B735B7"/>
<path d="M357.655 171.565H340.712C334.964 171.565 330.303 176.226 330.303 181.974V198.917C330.303 204.666 334.964 209.327 340.712 209.327H357.655C363.404 209.327 368.065 204.666 368.065 198.917V181.974C368.065 176.226 363.404 171.565 357.655 171.565ZM365.013 198.874C365.013 202.961 361.699 206.275 357.612 206.275H340.756C336.668 206.275 333.354 202.961 333.354 198.874V182.018C333.354 177.93 336.668 174.616 340.756 174.616H357.612C361.699 174.616 365.013 177.93 365.013 182.018V198.874Z" fill="white"/>
<path d="M349.184 180.495C343.688 180.495 339.233 184.95 339.233 190.446C339.233 195.941 343.688 200.397 349.184 200.397C354.68 200.397 359.135 195.941 359.135 190.446C359.135 184.95 354.68 180.495 349.184 180.495ZM349.184 196.936C345.599 196.936 342.694 194.03 342.694 190.446C342.694 186.861 345.599 183.955 349.184 183.955C352.768 183.955 355.674 186.861 355.674 190.446C355.675 194.03 352.768 196.936 349.184 196.936Z" fill="white"/>
<path d="M359.473 182.395C360.706 182.395 361.705 181.396 361.705 180.163C361.705 178.931 360.706 177.931 359.473 177.931C358.241 177.931 357.241 178.931 357.241 180.163C357.241 181.396 358.241 182.395 359.473 182.395Z" fill="white"/>
<path d="M298.913 309.994C307.895 326.019 302.185 346.29 286.161 355.271C270.137 364.253 249.865 358.544 240.884 342.52C233.201 328.814 236.274 312.008 247.348 301.81L247.288 285.917L260.812 294.262C275.291 290.138 291.23 296.289 298.913 309.994Z" fill="#005CFF"/>
<path d="M266.569 324.899C266.569 324.899 270.514 324.605 270.514 319.978C270.514 315.348 267.287 313.089 263.198 313.089H249.739V338.953H263.198C263.198 338.953 271.411 339.213 271.411 331.318C271.411 331.318 271.77 324.899 266.569 324.899ZM255.67 317.687H263.198C263.198 317.687 265.025 317.687 265.025 320.379C265.025 323.067 263.949 323.458 262.731 323.461H255.671V317.687H255.67ZM262.85 334.357H255.67V327.446H263.198C263.198 327.446 265.924 327.411 265.924 330.998C265.924 333.99 263.929 334.326 262.85 334.357Z" fill="white"/>
<path d="M287.479 314.614H276.806V317.798H287.479V314.614Z" fill="white"/>
<path d="M282.369 319.67C272.423 319.67 272.434 329.607 272.434 329.607C272.434 329.607 271.751 339.492 282.371 339.492C282.371 339.492 291.22 340.001 291.22 332.615H286.67C286.67 332.615 286.82 335.397 282.522 335.397C282.522 335.397 277.971 335.701 277.971 330.897H291.373C291.373 330.897 292.838 319.67 282.369 319.67ZM277.92 327.446C277.92 327.446 278.474 323.458 282.471 323.458C286.467 323.458 286.417 327.446 286.417 327.446H277.92Z" fill="white"/>
<path d="M36.7125 142.066C21.1526 132.301 16.4554 111.772 26.2205 96.2124C35.9856 80.6524 56.5142 75.9553 72.0741 85.7194C85.3824 94.0709 90.7347 110.296 85.8989 124.552L93.5638 138.474L77.6939 137.626C66.958 148.183 50.0199 150.419 36.7125 142.066Z" fill="#3E6DC1"/>
<path d="M73.1611 116.146V129.467H65.4382V117.039C65.4382 113.918 64.3227 111.787 61.527 111.787C59.3934 111.787 58.1254 113.222 57.5657 114.611C57.3621 115.108 57.31 115.796 57.31 116.494V129.467H49.586C49.586 129.467 49.6893 108.418 49.586 106.238H57.31V109.529C57.2942 109.556 57.2726 109.581 57.2588 109.606H57.31V109.529C58.3369 107.951 60.1666 105.692 64.2705 105.692C69.3513 105.693 73.1611 109.013 73.1611 116.146ZM37.5939 129.468H45.3149V106.239H37.5939V129.468ZM45.5451 98.3567C45.5451 100.552 43.7646 102.333 41.569 102.333C39.3734 102.333 37.5929 100.553 37.5929 98.3567C37.5929 96.1611 39.3734 94.3806 41.569 94.3806C43.7656 94.3816 45.5451 96.1611 45.5451 98.3567Z" fill="white"/>
<path d="M34.2356 223.697C15.8712 223.697 0.984024 208.81 0.984024 190.446C0.984024 172.081 15.8712 157.194 34.2356 157.194C49.9431 157.194 63.097 168.088 66.5773 182.731L80.466 190.446L66.5783 198.161C63.097 212.803 49.9431 223.697 34.2356 223.697Z" fill="#DC4335"/>
<path d="M29.1155 188.326V193.413H37.531C37.1916 195.596 34.9872 199.814 29.1155 199.814C24.0495 199.814 19.9171 195.618 19.9171 190.446C19.9171 185.273 24.0495 181.077 29.1155 181.077C31.9977 181.077 33.9267 182.307 35.0295 183.366L39.0567 179.487C36.4706 177.071 33.1211 175.609 29.1155 175.609C20.9126 175.609 14.2786 182.244 14.2786 190.446C14.2786 198.648 20.9126 205.283 29.1155 205.283C37.6785 205.283 43.3593 199.263 43.3593 190.785C43.3593 189.81 43.2531 189.067 43.1262 188.326H29.1155Z" fill="white"/>
<path d="M60.9093 188.326H56.6696V184.087H52.4309V188.326H48.1922V192.565H52.4309V196.804H56.6696V192.565H60.9093V188.326Z" fill="white"/>
<path d="M36.2207 238.825C20.6607 248.59 15.9636 269.119 25.7287 284.678C35.4937 300.238 56.0223 304.935 71.5823 295.171C84.8906 286.82 90.2429 270.595 85.407 256.338L93.0719 242.417L77.2021 243.265C66.4661 232.709 49.528 230.473 36.2207 238.825Z" fill="#F6E436"/>
<path d="M70.1923 274.346C67.9003 273.125 65.6113 271.703 64.8076 269.152L69.0837 266.684C70.0723 266.114 70.4146 264.837 69.8431 263.848C69.2726 262.86 67.9957 262.517 67.0071 263.089L64.9217 264.293C64.9709 264.115 65.024 263.934 65.0821 263.748C65.5493 262.512 65.807 261.172 65.807 259.771C65.807 253.554 60.7666 248.514 54.5497 248.514C48.3318 248.514 43.2924 253.554 43.2924 259.771C43.2924 261.172 43.5501 262.511 44.0174 263.748C44.0754 263.933 44.1285 264.114 44.1777 264.293L42.0923 263.089C41.1037 262.517 39.8278 262.86 39.2563 263.848C38.6858 264.837 39.0271 266.114 40.0167 266.684L44.2928 269.152C43.4891 271.703 41.2001 273.124 38.9081 274.346C35.3531 276.242 33.1014 277.901 35.7082 278.256C38.3149 278.612 40.2115 278.731 40.3295 280.745C40.4476 282.76 43.0553 282.404 44.0026 282.049C44.9509 281.693 47.6757 281.456 49.2162 283.471C50.7566 285.486 53.2454 285.486 54.5487 285.486C55.8521 285.486 58.3409 285.486 59.8813 283.471C61.4218 281.456 64.1476 281.693 65.0949 282.049C66.0431 282.404 68.6499 282.76 68.7679 280.745C68.887 278.731 70.7825 278.613 73.3893 278.256C75.999 277.901 73.7474 276.243 70.1923 274.346Z" fill="white"/>
<path d="M82.5957 70.8974C73.6136 54.8732 79.3229 34.6013 95.3472 25.6203C111.371 16.6392 131.643 22.3475 140.624 38.3718C148.307 52.0775 145.234 68.8838 134.161 79.0817L134.221 94.9742L120.696 86.6296C106.217 90.7532 90.2773 84.6032 82.5957 70.8974Z" fill="#00AFF0"/>
<path d="M130.421 56.2524C130.576 55.2805 130.656 54.286 130.656 53.2699C130.656 42.707 122.097 34.1489 111.536 34.1489C110.52 34.1489 109.524 34.2306 108.551 34.384C106.789 33.2951 104.712 32.6646 102.484 32.6646C96.1037 32.6646 90.9304 37.8368 90.9304 44.2209C90.9304 46.447 91.559 48.5226 92.649 50.2893C92.4994 51.2641 92.4168 52.2547 92.4168 53.2708C92.4168 63.8327 100.975 72.3908 111.534 72.3908C112.549 72.3908 113.545 72.3121 114.518 72.1567C116.282 73.2446 118.36 73.8761 120.587 73.8761C126.968 73.8761 132.141 68.701 132.141 62.3227C132.142 60.0947 131.512 58.0162 130.421 56.2524ZM120.614 61.9657C119.806 63.1313 118.618 64.0403 117.064 64.6924C115.508 65.3486 113.669 65.6761 111.546 65.6761C109.002 65.6761 106.896 65.2315 105.232 64.3295C104.052 63.6861 103.094 62.8244 102.358 61.7453C101.617 60.6672 101.244 59.6117 101.244 58.5808C101.244 57.9768 101.477 57.4476 101.926 57.0157C102.383 56.5839 102.969 56.3675 103.662 56.3675C104.23 56.3675 104.715 56.5367 105.113 56.8761C105.506 57.2144 105.837 57.7043 106.106 58.3545C106.43 59.108 106.784 59.7356 107.156 60.2373C107.528 60.7341 108.052 61.1472 108.728 61.4709C109.399 61.7955 110.291 61.9568 111.408 61.9568C112.936 61.9568 114.171 61.6273 115.114 60.9741C116.065 60.318 116.52 59.5173 116.52 58.5493C116.52 57.7771 116.274 57.1653 115.772 56.6901C115.262 56.2042 114.604 55.8353 113.788 55.5786C112.97 55.3179 111.87 55.0425 110.493 54.7533C108.643 54.3499 107.096 53.8807 105.842 53.3397C104.589 52.7987 103.589 52.0589 102.849 51.1215C102.106 50.1781 101.737 49.0026 101.737 47.6137C101.737 46.2876 102.129 45.0993 102.908 44.0694C103.692 43.0346 104.822 42.2408 106.296 41.6909C107.765 41.139 109.496 40.8626 111.48 40.8626C113.061 40.8626 114.435 41.0456 115.595 41.4105C116.751 41.7784 117.717 42.2644 118.486 42.8723C119.253 43.4802 119.818 44.1196 120.174 44.7915C120.533 45.4643 120.712 46.1243 120.712 46.7647C120.712 47.3638 120.48 47.9058 120.028 48.3799C119.576 48.857 119.001 49.098 118.327 49.0951C117.719 49.0951 117.243 48.9564 116.912 48.6603C116.589 48.3711 116.252 47.9156 115.886 47.2772C115.421 46.3899 114.869 45.6974 114.226 45.2007C113.598 44.7157 112.564 44.4609 111.126 44.4649C109.792 44.4649 108.728 44.7374 107.924 45.2705C107.114 45.8106 106.726 46.4372 106.725 47.173C106.726 47.6353 106.859 48.0229 107.126 48.3534C107.395 48.6898 107.774 48.979 108.256 49.2259C108.741 49.4728 109.233 49.6646 109.729 49.8043C110.228 49.945 111.061 50.1496 112.214 50.4221C113.66 50.7359 114.975 51.0851 116.155 51.4638C117.335 51.8455 118.338 52.3068 119.168 52.8557C120.005 53.4017 120.661 54.0971 121.128 54.9421C121.598 55.7851 121.83 56.8161 121.83 58.0289C121.83 59.4887 121.424 60.802 120.614 61.9657Z" fill="white"/>
<path d="M223.268 347.64C223.268 366.005 208.381 380.892 190.016 380.892C171.652 380.892 156.765 366.005 156.765 347.64C156.765 331.933 167.659 318.779 182.301 315.298L190.016 301.41L197.731 315.297C212.374 318.779 223.268 331.934 223.268 347.64Z" fill="#E52D27"/>
<path fill-rule="evenodd" clip-rule="evenodd" d="M208.003 340.413C208.003 337.605 205.728 335.328 202.92 335.328H179.081C176.272 335.328 173.998 337.604 173.998 340.413V354.047C173.998 356.854 176.273 359.132 179.081 359.132H202.92C205.729 359.132 208.003 356.854 208.003 354.047V340.413ZM187.599 352.982V340.177L197.311 346.579L187.599 352.982Z" fill="white"/>
<path d="M82.1038 309.994C73.1218 326.019 78.8311 346.29 94.8554 355.271C110.88 364.252 131.151 358.544 140.133 342.52C147.815 328.814 144.742 312.008 133.669 301.81L133.729 285.917L120.204 294.262C105.725 290.138 89.7854 296.289 82.1038 309.994Z" fill="#65B1EA"/>
<path d="M96.0781 322.388C99.2898 320.281 100.26 320.447 101.665 325.867C103.07 331.287 104.944 339.45 108.356 340.855C111.769 342.259 116.854 338.713 122.675 330.484C128.497 322.254 129.58 314.52 124.013 313.087C119.597 311.95 116.302 315.261 114.712 317.704C113.609 319.398 112.704 321.116 113.709 320.581C114.712 320.046 118.86 319.577 117.857 323.257C116.854 326.937 114.645 329.681 113.642 330.684C112.638 331.688 111.433 331.487 110.564 326.469C109.694 321.451 108.829 310.312 102.803 313.823C97.232 317.068 94.5731 320.514 94.5731 320.514L96.0781 322.388Z" fill="white"/>
</g>
</svg>
