<svg width="114" height="52" viewBox="0 0 114 52" fill="none" xmlns="http://www.w3.org/2000/svg">
<g clip-path="url(#clip0_848_1407)">
<path d="M12.8321 0H0V4.27786H12.8321V0Z" fill="#FCFCFC"/>
<path d="M4.27643 12.8321L4.27643 0L-0.00142717 0L-0.00142717 12.8321H4.27643Z" fill="#FCFCFC"/>
<path d="M12.8321 47.0508H0V51.3286H12.8321V47.0508Z" fill="#FCFCFC"/>
<path d="M0 38.4965L0 51.3286H4.27785L4.27785 38.4965H0Z" fill="#FCFCFC"/>
<path d="M0 25.6659L0 34.2202H4.27785L4.27785 25.6659H0Z" fill="#FCFCFC"/>
<path d="M2.13893 21.3135C3.29972 21.3135 4.24073 20.3725 4.24073 19.2117C4.24073 18.0509 3.29972 17.1099 2.13893 17.1099C0.978134 17.1099 0.0371246 18.0509 0.0371246 19.2117C0.0371246 20.3725 0.978134 21.3135 2.13893 21.3135Z" fill="#FCFCFC"/>
<path d="M29.9421 51.3301H42.7743V47.0522H29.9421V51.3301Z" fill="#FCFCFC"/>
<path d="M38.4964 38.4979V51.3301H42.7743V38.4979H38.4964Z" fill="#FCFCFC"/>
<path d="M29.9421 4.27783L42.7743 4.27783V-2.3365e-05L29.9421 -2.3365e-05V4.27783Z" fill="#FCFCFC"/>
<path d="M42.7728 12.8321V0L38.495 0V12.8321H42.7728Z" fill="#FCFCFC"/>
<path d="M42.7728 25.6627V17.1084H38.495V25.6627H42.7728Z" fill="#FCFCFC"/>
<path d="M40.6353 34.2187C41.7961 34.2187 42.7371 33.2777 42.7371 32.1169C42.7371 30.9561 41.7961 30.0151 40.6353 30.0151C39.4745 30.0151 38.5335 30.9561 38.5335 32.1169C38.5335 33.2777 39.4745 34.2187 40.6353 34.2187Z" fill="#FCFCFC"/>
<path d="M55.1409 26.5352C54.0815 26.5352 53.2533 26.243 52.6565 25.6585C52.0596 25.074 51.7617 24.2459 51.7626 23.174C51.7626 22.0717 52.0382 21.2198 52.5894 20.6182C53.1405 20.0166 53.902 19.7153 54.8739 19.7144C55.803 19.7144 56.5269 19.979 57.0457 20.5082C57.5645 21.0375 57.8253 21.769 57.8282 22.7029V23.5738H53.5817C53.5998 24.0831 53.7507 24.481 54.0343 24.7675C54.318 25.0541 54.714 25.1968 55.2223 25.1959C55.6008 25.1976 55.9783 25.1564 56.3475 25.0731C56.7285 24.9802 57.0988 24.8482 57.4526 24.679V26.0669C57.1358 26.2258 56.7999 26.3434 56.4531 26.4167C56.0211 26.502 55.5813 26.5417 55.1409 26.5352ZM54.8882 20.9894C54.7215 20.9808 54.555 21.0088 54.4003 21.0715C54.2457 21.1341 54.1066 21.2299 53.9929 21.3521C53.7582 21.6434 53.6275 22.0047 53.6217 22.3787H56.1404C56.1338 21.9361 56.0181 21.5939 55.7935 21.3521C55.6774 21.2303 55.5365 21.1349 55.3803 21.0723C55.2241 21.0097 55.0563 20.9815 54.8882 20.9894Z" fill="#FCFCFC"/>
<path d="M64.996 26.4152H63.1997V22.5743C63.1997 22.1002 63.1155 21.7433 62.947 21.5063C62.7785 21.2692 62.5101 21.1507 62.1417 21.1507C61.6391 21.1507 61.2759 21.3183 61.0522 21.6533C60.8286 21.9884 60.7167 22.5448 60.7167 23.3225V26.4152H58.9219V19.8385H60.2926L60.5339 20.6795H60.6339C60.8329 20.3634 61.1203 20.1126 61.4606 19.9585C61.8373 19.7904 62.2462 19.7071 62.6586 19.7143C63.4201 19.7143 64.0008 19.9213 64.4006 20.3354C64.8004 20.7495 64.9988 21.3482 64.996 22.1317V26.4152Z" fill="#FCFCFC"/>
<path d="M70.6603 26.4154L70.3133 25.5216H70.2662C70.0206 25.8542 69.7008 26.125 69.3324 26.3126C68.9359 26.4744 68.5095 26.5498 68.0816 26.5339C67.4505 26.5339 66.9536 26.3535 66.5909 25.9928C66.2282 25.632 66.0464 25.118 66.0455 24.4507C66.0455 23.7529 66.2901 23.238 66.7794 22.9058C67.2687 22.5735 68.005 22.3903 68.9883 22.356L70.1306 22.3203V22.0348C70.1306 21.3684 69.7893 21.0353 69.1068 21.0353C68.5799 21.0353 67.9645 21.1938 67.2506 21.5122L66.6566 20.2999C67.4353 19.8982 68.3006 19.6938 69.1767 19.7045C70.0592 19.7045 70.736 19.8949 71.2072 20.2756C71.6783 20.6564 71.9139 21.2409 71.9139 22.0291V26.4154H70.6603ZM70.1306 23.367L69.4352 23.3912C68.9135 23.4065 68.5252 23.5016 68.2701 23.6768C68.1437 23.764 68.042 23.8824 67.975 24.0205C67.9079 24.1586 67.8777 24.3117 67.8874 24.465C67.8874 24.9714 68.1782 25.2246 68.7598 25.2246C68.9419 25.2339 69.1241 25.2069 69.2957 25.1451C69.4673 25.0833 69.6249 24.988 69.7593 24.8648C69.885 24.7412 69.9832 24.5925 70.0477 24.4284C70.1121 24.2643 70.1413 24.0885 70.1334 23.9124L70.1306 23.367Z" fill="#FCFCFC"/>
<path d="M81.3064 24.4634C81.3064 25.1383 81.0722 25.6523 80.6039 26.0055C80.1355 26.3586 79.434 26.5352 78.4992 26.5352C78.0892 26.5407 77.6796 26.5082 77.2755 26.4381C76.9502 26.3773 76.6323 26.2815 76.3274 26.1526V24.669C76.69 24.8362 77.0677 24.9681 77.4555 25.0631C77.8149 25.1618 78.1851 25.2155 78.5578 25.223C79.2089 25.223 79.5358 25.0345 79.5358 24.6519C79.5382 24.5888 79.5279 24.5258 79.5056 24.4667C79.4833 24.4076 79.4494 24.3536 79.4059 24.3078C79.2721 24.1869 79.1216 24.0859 78.959 24.0079C78.7458 23.8946 78.463 23.7642 78.1108 23.6167C77.7174 23.4648 77.3432 23.2673 76.9957 23.0284C76.7749 22.8667 76.5969 22.6535 76.4774 22.4073C76.3633 22.1364 76.3083 21.8444 76.316 21.5506C76.3055 21.2855 76.3624 21.022 76.4812 20.7848C76.6001 20.5476 76.777 20.3444 76.9957 20.1941C77.4497 19.8743 78.0908 19.7144 78.9233 19.7144C79.7229 19.7159 80.5125 19.8929 81.2364 20.2327L80.6953 21.5263C80.3654 21.3835 80.057 21.2693 79.77 21.1793C79.4868 21.0871 79.1911 21.0389 78.8933 21.0365C78.3636 21.0365 78.0994 21.1793 78.0994 21.4649C78.103 21.5506 78.1284 21.634 78.1731 21.7071C78.2178 21.7803 78.2804 21.8409 78.355 21.8833C78.7125 22.0906 79.0875 22.266 79.4759 22.4073C79.8754 22.554 80.2553 22.7497 80.6067 22.9899C80.8307 23.1525 81.0123 23.3665 81.1365 23.6138C81.2568 23.8805 81.3149 24.171 81.3064 24.4634Z" fill="#FCFCFC"/>
<path d="M86.9364 24.4637C86.9364 25.1386 86.7018 25.6526 86.2325 26.0057C85.7632 26.3589 85.0621 26.5355 84.1293 26.5355C83.7188 26.5409 83.3087 26.5084 82.9042 26.4384C82.5792 26.3775 82.2618 26.2818 81.9575 26.1528V24.6693C82.3195 24.8364 82.6968 24.9684 83.0841 25.0634C83.444 25.1621 83.8147 25.2158 84.1878 25.2233C84.8389 25.2233 85.1645 25.0329 85.1645 24.6521C85.1671 24.589 85.157 24.5259 85.1347 24.4668C85.1124 24.4077 85.0783 24.3536 85.0345 24.308C84.9012 24.1865 84.7506 24.0855 84.5876 24.0082C84.3763 23.8949 84.094 23.7645 83.7409 23.6169C83.3473 23.4654 82.973 23.2679 82.6257 23.0287C82.4037 22.8709 82.2238 22.661 82.1017 22.4175C81.9869 22.1469 81.9319 21.8547 81.9404 21.5608C81.929 21.2956 81.9855 21.0319 82.1044 20.7945C82.2234 20.5572 82.4008 20.3541 82.62 20.2044C83.0731 19.8845 83.7152 19.7246 84.5462 19.7246C85.3459 19.7262 86.1354 19.9031 86.8593 20.2429L86.3182 21.5366C85.9883 21.3938 85.6799 21.2795 85.3943 21.1896C85.1111 21.0974 84.8154 21.0493 84.5176 21.0468C83.9879 21.0468 83.7223 21.1896 83.7223 21.4752C83.7259 21.561 83.7515 21.6445 83.7964 21.7178C83.8414 21.791 83.9044 21.8515 83.9793 21.8935C84.3366 22.1012 84.7117 22.2765 85.1002 22.4175C85.4995 22.5639 85.8789 22.7596 86.2296 23.0001C86.454 23.1623 86.6358 23.3764 86.7594 23.6241C86.8813 23.8869 86.9419 24.174 86.9364 24.4637Z" fill="#FCFCFC"/>
<path d="M92.1538 26.4153L91.8111 25.5229H91.764C91.5183 25.8555 91.1986 26.1263 90.8302 26.314C90.4337 26.4757 90.0073 26.5511 89.5794 26.5353C88.9483 26.5353 88.4514 26.3549 88.0887 25.9941C87.726 25.6333 87.5442 25.1193 87.5432 24.452C87.5432 23.7543 87.7879 23.2393 88.2772 22.9071C88.7664 22.5749 89.5027 22.3916 90.4861 22.3574L91.6283 22.3217V22.0361C91.6283 21.3698 91.2871 21.0366 90.6046 21.0366C90.0777 21.0366 89.4623 21.1951 88.7484 21.5135L88.1544 20.3012C88.9312 19.9 89.7945 19.6951 90.6688 19.7044C91.5512 19.7044 92.228 19.8948 92.6992 20.2755C93.1704 20.6563 93.406 21.2408 93.406 22.029V26.4153H92.1538ZM91.6241 23.3669L90.9287 23.3911C90.407 23.4064 90.0187 23.5016 89.7636 23.6767C89.6372 23.7639 89.5355 23.8823 89.4685 24.0204C89.4014 24.1585 89.3712 24.3116 89.3809 24.4649C89.3809 24.9718 89.6665 25.2245 90.2519 25.2245C90.434 25.2337 90.6162 25.2067 90.7877 25.1449C90.9593 25.0831 91.1169 24.9879 91.2514 24.8647C91.3768 24.7409 91.475 24.5922 91.5394 24.4281C91.6038 24.2641 91.6332 24.0884 91.6255 23.9123L91.6241 23.3669Z" fill="#FCFCFC"/>
<path d="M100.967 26.4152H99.1717V22.5743C99.1717 22.1003 99.0875 21.7433 98.919 21.5063C98.7505 21.2693 98.4806 21.1507 98.1122 21.1507C97.6096 21.1507 97.2465 21.3183 97.0228 21.6533C96.7991 21.9884 96.6872 22.5448 96.6872 23.3225V26.4152H94.8924V19.8385H96.2646L96.5059 20.6795H96.6059C96.8041 20.3628 97.0918 20.1118 97.4326 19.9585C97.8092 19.7903 98.2182 19.7069 98.6306 19.7143C99.3921 19.7143 99.9727 19.9214 100.373 20.3354C100.772 20.7495 100.97 21.3483 100.967 22.1317V26.4152Z" fill="#FCFCFC"/>
<path d="M105.124 26.5354C103.077 26.5354 102.053 25.4112 102.053 23.1628C102.053 22.0443 102.332 21.19 102.888 20.5998C103.445 20.0096 104.243 19.7145 105.283 19.7145C105.991 19.7026 106.693 19.8556 107.332 20.1614L106.804 21.5507C106.518 21.4365 106.255 21.3413 106.014 21.2652C105.777 21.1935 105.532 21.1569 105.284 21.1566C104.351 21.1566 103.884 21.8196 103.884 23.1456C103.884 24.4326 104.351 25.0761 105.284 25.0761C105.61 25.078 105.933 25.0298 106.244 24.9333C106.557 24.8327 106.854 24.6885 107.126 24.505V26.0413C106.856 26.2168 106.559 26.3461 106.247 26.424C105.878 26.5035 105.502 26.5409 105.124 26.5354Z" fill="#FCFCFC"/>
<path d="M111.266 26.5352C110.206 26.5352 109.378 26.243 108.783 25.6585C108.187 25.074 107.888 24.2459 107.887 23.174C107.887 22.0717 108.163 21.2198 108.714 20.6182C109.265 20.0166 110.027 19.7153 110.999 19.7144C111.928 19.7144 112.651 19.979 113.169 20.5082C113.687 21.0375 113.947 21.769 113.95 22.7029V23.5738H109.706C109.726 24.0836 109.876 24.482 110.159 24.7675C110.442 25.0531 110.839 25.1959 111.348 25.1959C111.726 25.1976 112.103 25.1564 112.472 25.0731C112.854 24.9803 113.224 24.8482 113.579 24.679V26.0669C113.259 26.2255 112.921 26.3426 112.572 26.4153C112.142 26.5006 111.704 26.5408 111.266 26.5352ZM111.013 20.9894C110.846 20.9808 110.68 21.0088 110.525 21.0715C110.37 21.1341 110.231 21.2299 110.118 21.3521C109.883 21.6435 109.753 22.0049 109.748 22.3787H112.267C112.258 21.9361 112.142 21.5939 111.92 21.3521C111.803 21.2304 111.662 21.1351 111.506 21.0725C111.349 21.01 111.181 20.9816 111.013 20.9894Z" fill="#FCFCFC"/>
<path d="M56.4417 38.4694H54.6469V34.627C54.6469 34.153 54.5612 33.796 54.3927 33.559C54.2243 33.322 53.9558 33.2035 53.5874 33.2035C53.0848 33.2035 52.7217 33.371 52.498 33.7061C52.2743 34.0411 52.1624 34.597 52.1624 35.3738V38.4694H50.3676V31.8913H51.7398L51.9811 32.7323H52.081C52.2793 32.4155 52.567 32.1646 52.9078 32.0112C53.2839 31.8432 53.6924 31.7598 54.1043 31.767C54.8658 31.767 55.4465 31.9741 55.8463 32.3882C56.2461 32.8022 56.4446 33.3995 56.4417 34.1801V38.4694Z" fill="#FCFCFC"/>
<path d="M64.0008 38.4694H62.206V34.627C62.206 34.153 62.1217 33.796 61.9532 33.559C61.7847 33.322 61.5149 33.2035 61.1465 33.2035C60.6439 33.2035 60.2812 33.371 60.0585 33.7061C59.8357 34.0412 59.7239 34.5971 59.7229 35.3738V38.4694H57.9281V31.8913H59.2988L59.5401 32.7323H59.6401C59.8383 32.4155 60.126 32.1646 60.4668 32.0112C60.8434 31.843 61.2524 31.7597 61.6648 31.7671C62.4263 31.7671 63.007 31.9741 63.4068 32.3882C63.8066 32.8022 64.0046 33.3996 64.0008 34.1801V38.4694Z" fill="#FCFCFC"/>
<path d="M71.4656 35.168C71.4656 36.2389 71.1834 37.0765 70.6189 37.681C70.0544 38.2855 69.2677 38.5877 68.2586 38.5877C67.6748 38.5996 67.0983 38.4562 66.588 38.1722C66.1057 37.8964 65.718 37.4813 65.4757 36.9813C65.2059 36.4157 65.0729 35.7945 65.0874 35.168C65.0874 34.0923 65.3677 33.2565 65.9284 32.6607C66.489 32.0648 67.2777 31.7668 68.2943 31.7668C68.8776 31.7548 69.4538 31.8967 69.9649 32.178C70.4463 32.4517 70.8339 32.8643 71.0772 33.3617C71.3474 33.9247 71.4805 34.5437 71.4656 35.168ZM66.9165 35.168C66.9165 35.8191 67.0235 36.3117 67.2377 36.6458C67.4519 36.9799 67.8003 37.1465 68.2829 37.1455C68.7589 37.1455 69.103 36.9799 69.3153 36.6487C69.5275 36.3174 69.6327 35.8238 69.6308 35.168C69.6308 34.5169 69.5247 34.0285 69.3124 33.703C69.1011 33.3774 68.7527 33.2147 68.2701 33.2147C67.7874 33.2147 67.4462 33.376 67.2349 33.7001C67.0235 34.0243 66.9165 34.5126 66.9165 35.168Z" fill="#FCFCFC"/>
<path d="M74.1528 38.4692L71.6455 31.8911H73.5231L74.7939 35.6392C74.9284 36.0782 75.0174 36.5299 75.0595 36.9871H75.0952C75.1294 36.5289 75.2181 36.0764 75.3594 35.6392L76.6244 31.8911H78.5021L75.9948 38.4692H74.1528Z" fill="#FCFCFC"/>
<path d="M83.2597 38.4693L82.9127 37.5754H82.8656C82.6208 37.9083 82.3015 38.1792 81.9332 38.3665C81.5367 38.5282 81.1103 38.6037 80.6824 38.5878C80.0513 38.5878 79.5539 38.4074 79.1903 38.0466C78.8267 37.6859 78.6453 37.1718 78.6463 36.5045C78.6463 35.8068 78.8905 35.2918 79.3788 34.9596C79.8671 34.6274 80.6039 34.4446 81.5891 34.4113L82.7314 34.3756V34.09C82.7314 33.4237 82.3897 33.0905 81.7062 33.0905C81.1807 33.0905 80.562 33.2495 79.85 33.5674L79.256 32.3552C80.0341 31.9536 80.8991 31.7496 81.7747 31.7612C82.6571 31.7612 83.3339 31.9516 83.8051 32.3324C84.2763 32.7131 84.5114 33.2976 84.5105 34.0858V38.4693H83.2597ZM82.7314 35.4208L82.036 35.4451C81.5153 35.4603 81.127 35.5555 80.8709 35.7307C80.7445 35.8178 80.6429 35.9362 80.5758 36.0744C80.5087 36.2125 80.4786 36.3656 80.4882 36.5188C80.4882 37.0243 80.7738 37.2784 81.3592 37.2784C81.5413 37.2874 81.7234 37.2603 81.895 37.1985C82.0665 37.1367 82.2241 37.0416 82.3587 36.9186C82.4842 36.7948 82.5823 36.6461 82.6467 36.4821C82.7112 36.3181 82.7405 36.1423 82.7328 35.9662L82.7314 35.4208Z" fill="#FCFCFC"/>
<path d="M88.7726 37.1569C89.1572 37.1444 89.5378 37.0751 89.9021 36.9513V38.2878C89.3799 38.502 88.8185 38.6041 88.2543 38.5876C87.5356 38.5876 87.0121 38.4063 86.6837 38.0436C86.3553 37.6809 86.192 37.1364 86.1939 36.4101V33.2374H85.3372V32.4792L86.3253 31.8781L86.8436 30.4902H87.9859V31.891H89.8293V33.2374H87.9887V36.4101C87.9793 36.5154 87.9938 36.6215 88.0311 36.7204C88.0685 36.8193 88.1277 36.9085 88.2044 36.9813C88.3664 37.1065 88.5682 37.1689 88.7726 37.1569Z" fill="#FCFCFC"/>
<path d="M100.166 35.168C100.166 36.2389 99.8833 37.0765 99.3188 37.681C98.7543 38.2855 97.9676 38.5877 96.9585 38.5877C96.3747 38.5996 95.7982 38.4562 95.2879 38.1722C94.8056 37.8964 94.4179 37.4813 94.1756 36.9813C93.9058 36.4157 93.7728 35.7945 93.7873 35.168C93.7873 34.0923 94.0676 33.2565 94.6283 32.6607C95.1889 32.0648 95.9776 31.7668 96.9942 31.7668C97.5775 31.7548 98.1537 31.8967 98.6648 32.178C99.1462 32.4517 99.5338 32.8643 99.7771 33.3617C100.047 33.9247 100.18 34.5437 100.166 35.168ZM95.6164 35.168C95.6164 35.8191 95.7234 36.3117 95.9376 36.6458C96.1518 36.9799 96.5002 37.1465 96.9828 37.1455C97.4588 37.1455 97.8029 36.9799 98.0152 36.6487C98.2274 36.3174 98.3326 35.8238 98.3307 35.168C98.3307 34.5169 98.2246 34.0285 98.0123 33.703C97.8 33.3774 97.4526 33.2147 96.97 33.2147C96.494 33.2147 96.1489 33.3765 95.9348 33.7001C95.7206 34.0238 95.6145 34.5131 95.6164 35.168Z" fill="#FCFCFC"/>
<path d="M107.36 38.4694H105.566V34.627C105.566 34.153 105.481 33.796 105.313 33.559C105.144 33.322 104.876 33.2035 104.506 33.2035C104.004 33.2035 103.641 33.371 103.418 33.7061C103.195 34.0411 103.084 34.597 103.083 35.3738V38.4694H101.288V31.8913H102.663L102.904 32.7323H103.004C103.202 32.4155 103.49 32.1646 103.831 32.0112C104.207 31.8432 104.616 31.7598 105.029 31.767C105.79 31.767 106.371 31.9741 106.771 32.3881C107.171 32.8022 107.369 33.3995 107.365 34.1801L107.36 38.4694Z" fill="#FCFCFC"/>
<path d="M57.257 51.2117L56.91 50.3164H56.8629C56.6179 50.6494 56.2986 50.9207 55.9305 51.1089C55.5339 51.2701 55.1076 51.3451 54.6797 51.3288C54.0467 51.3288 53.5494 51.1484 53.1876 50.7876C52.8259 50.4268 52.6446 49.9128 52.6436 49.2455C52.6436 48.5478 52.8878 48.0328 53.3761 47.7006C53.8644 47.3684 54.6007 47.1851 55.585 47.1509L56.7273 47.1152V46.8296C56.7273 46.1633 56.386 45.8301 55.7035 45.8301C55.1781 45.8301 54.5593 45.9891 53.8473 46.307L53.259 45.0905C54.0375 44.6898 54.9023 44.4859 55.7778 44.4965C56.6611 44.4965 57.3379 44.6869 57.8082 45.0676C58.2784 45.4484 58.5164 46.0329 58.5221 46.821V51.206L57.257 51.2117ZM56.7273 48.1632L56.0333 48.1861C55.5107 48.2013 55.1224 48.2965 54.8682 48.4716C54.7416 48.5588 54.6398 48.6775 54.573 48.8159C54.5061 48.9544 54.4765 49.1079 54.487 49.2612C54.487 49.7677 54.7773 50.0209 55.358 50.0209C55.54 50.03 55.722 50.0031 55.8935 49.9416C56.0651 49.8801 56.2228 49.7852 56.3575 49.6625C56.4831 49.5385 56.5813 49.3896 56.6458 49.2253C56.7102 49.061 56.7394 48.885 56.7316 48.7087L56.7273 48.1632Z" fill="#FCFCFC"/>
<path d="M63.6581 44.5075C64.0141 44.4942 64.3677 44.5705 64.6865 44.7294C65.0054 44.8883 65.2792 45.1247 65.4829 45.417C65.9227 46.0224 66.1425 46.8534 66.1425 47.91C66.1425 48.9962 65.916 49.8377 65.4629 50.4345C65.2497 50.7234 64.9691 50.9558 64.6456 51.1116C64.3221 51.2674 63.9655 51.3418 63.6067 51.3283C62.8337 51.3283 62.2278 51.048 61.789 50.4873H61.6648L61.3649 51.2113H59.9942V42.8354H61.789V44.1919C61.789 44.4618 61.7647 44.8958 61.7176 45.4913H61.789C62.2117 44.8354 62.8347 44.5075 63.6581 44.5075ZM63.0869 45.9439C62.6424 45.9439 62.3187 46.08 62.116 46.3523C61.9118 46.625 61.8047 47.0762 61.7976 47.703V47.8972C61.7976 48.6045 61.9023 49.1109 62.1117 49.4164C62.3211 49.722 62.6543 49.8748 63.1112 49.8748C63.2899 49.8764 63.4657 49.8301 63.6204 49.7407C63.7751 49.6513 63.903 49.5221 63.9908 49.3665C64.2088 49.0266 64.3177 48.5331 64.3177 47.8858C64.3177 47.2385 64.2078 46.753 63.9879 46.4294C63.8925 46.2765 63.7588 46.1512 63.6 46.066C63.4411 45.9809 63.2628 45.9388 63.0826 45.9439H63.0869Z" fill="#FCFCFC"/>
<path d="M71.854 49.2609C71.854 49.9358 71.6193 50.4499 71.1501 50.803C70.6808 51.1562 69.9797 51.3328 69.0468 51.3328C68.6368 51.3382 68.2272 51.3057 67.8232 51.2357C67.4977 51.175 67.1798 51.0793 66.8751 50.9501V49.4637C67.2372 49.6306 67.6144 49.7626 68.0016 49.8578C68.3617 49.9553 68.7324 50.0086 69.1054 50.0163C69.7565 50.0163 70.082 49.8259 70.082 49.4451C70.0846 49.3821 70.0745 49.3192 70.0525 49.2601C70.0304 49.201 69.9967 49.147 69.9535 49.101C69.8194 48.9799 69.6683 48.8789 69.5052 48.8012C69.2938 48.6898 69.0111 48.5584 68.6584 48.4099C68.2632 48.263 67.8869 48.0693 67.5376 47.8331C67.3165 47.6717 67.1385 47.4584 67.0193 47.212C66.905 46.9412 66.85 46.6491 66.8579 46.3553C66.8474 46.0902 66.9042 45.8267 67.0231 45.5895C67.1419 45.3523 67.3189 45.1491 67.5376 44.9988C67.9897 44.679 68.6323 44.519 69.4652 44.519C70.2644 44.5205 71.0536 44.6974 71.7769 45.0374L71.2357 46.3324C70.9059 46.1896 70.5989 46.0754 70.3119 45.984C70.0283 45.8946 69.7326 45.8494 69.4352 45.8498C68.9059 45.8498 68.6413 45.9926 68.6413 46.2782C68.6449 46.3637 68.6702 46.4468 68.715 46.5198C68.7597 46.5928 68.8223 46.6531 68.8969 46.6951C69.2539 46.9033 69.629 47.0787 70.0178 47.2191C70.4165 47.3667 70.7958 47.5623 71.1472 47.8017C71.3716 47.9638 71.5534 48.1779 71.6769 48.4257C71.7983 48.6871 71.8588 48.9727 71.854 49.2609Z" fill="#FCFCFC"/>
<path d="M51.33 19.8389V21.5566H48.8469V26.417H47.0507V19.8389H51.33Z" fill="#FCFCFC"/>
<path d="M51.7183 51.2073V49.491H48.8484V42.8286H47.0507V51.2073H51.7183Z" fill="#FCFCFC"/>
<path d="M48.8469 38.4692H47.0507V31.8911H48.8469V38.4692Z" fill="#FCFCFC"/>
<path d="M47.9488 31.1072C48.4898 31.1072 48.9283 30.6834 48.9283 30.1605C48.9283 29.6377 48.4898 29.2139 47.9488 29.2139C47.4079 29.2139 46.9693 29.6377 46.9693 30.1605C46.9693 30.6834 47.4079 31.1072 47.9488 31.1072Z" fill="#FCFCFC"/>
<path d="M92.6678 38.4692H90.8701V31.8911H92.6678V38.4692Z" fill="#FCFCFC"/>
<path d="M91.7683 31.1072C92.3092 31.1072 92.7478 30.6834 92.7478 30.1605C92.7478 29.6377 92.3092 29.2139 91.7683 29.2139C91.2273 29.2139 90.7888 29.6377 90.7888 30.1605C90.7888 30.6834 91.2273 31.1072 91.7683 31.1072Z" fill="#FCFCFC"/>
<path d="M75.1952 26.4156H73.4003V19.8389H75.1952V26.4156Z" fill="#FCFCFC"/>
<path d="M74.2971 19.055C74.838 19.055 75.2766 18.6311 75.2766 18.1083C75.2766 17.5855 74.838 17.1616 74.2971 17.1616C73.7561 17.1616 73.3175 17.5855 73.3175 18.1083C73.3175 18.6311 73.7561 19.055 74.2971 19.055Z" fill="#FCFCFC"/>
</g>
<defs>
<clipPath id="clip0_848_1407">
<rect width="113.95" height="51.3286" fill="white"/>
</clipPath>
</defs>
</svg>
